<?xml version="1.0" encoding="UTF-8"?>
<!-- Generated by Pixelmator Pro 3.4.2 -->
<svg width="512" height="256" viewBox="0 0 512 256" xmlns="http://www.w3.org/2000/svg">
    <path id="Path" fill="#175ddc" stroke="none" d="M 9.102221 291.65036 C 17.066668 291.65036 23.324444 294.779266 27.875557 301.037048 C 32.426662 307.2948 34.702221 315.828125 34.702221 326.731842 C 34.702221 337.920013 32.331852 346.548157 27.685923 352.711121 C 23.039999 358.874084 16.687407 361.908142 8.628147 361.908142 C 0.663704 361.908142 -5.594074 359.06369 -10.050371 353.279999 L -11.377778 353.279999 L -13.842963 359.253357 C -14.222222 360.106659 -15.075555 360.675568 -16.023703 360.675568 L -26.263704 360.675568 C -27.59111 360.675568 -28.634073 359.632599 -28.634073 358.305176 L -28.634073 268.800018 C -28.634073 267.472595 -27.59111 266.429657 -26.263704 266.429657 L -12.515556 266.429657 C -11.188148 266.429657 -10.145185 267.472595 -10.145185 268.800018 L -10.145185 288.331848 C -10.145185 291.081482 -10.429629 295.537781 -10.903704 301.700745 L -10.145185 301.700745 C -5.783704 295.06369 0.568887 291.65036 9.102221 291.65036 Z M 3.128888 306.441467 C -1.422222 306.441467 -4.740741 307.863708 -6.826667 310.613312 C -8.912592 313.457764 -10.050371 318.008881 -10.050371 324.551117 L -10.050371 326.542236 C -10.050371 333.842957 -9.007407 339.05777 -6.826667 342.186676 C -4.645926 345.315552 -1.232592 346.927429 3.413332 346.927429 C 7.205925 346.927429 10.239999 345.220734 12.515556 341.712585 C 14.79111 338.204437 15.834075 333.17926 15.834075 326.447388 C 15.834075 319.810364 14.696297 314.785187 12.420739 311.466675 C 10.145185 308.148163 7.016298 306.441467 3.128888 306.441467 Z M 65.137772 360.675568 L 51.389626 360.675568 C 50.062225 360.675568 49.019257 359.632599 49.019257 358.305176 L 49.019257 295.253357 C 49.019257 293.925934 50.062225 292.882965 51.389626 292.882965 L 65.137772 292.882965 C 66.465187 292.882965 67.508148 293.925934 67.508148 295.253357 L 67.508148 358.305176 C 67.508148 359.632599 66.465187 360.675568 65.137772 360.675568 Z M 115.484444 347.211853 C 118.23407 347.211853 121.457787 346.737762 125.155556 345.694794 C 126.198524 345.41037 127.146675 346.168884 127.146675 347.211853 L 127.146675 357.831116 C 127.146675 358.494812 126.767403 359.06369 126.198524 359.253357 C 121.742218 361.05481 116.432594 361.908142 110.174812 361.908142 C 102.779251 361.908142 97.374809 360.011841 94.05629 356.314087 C 90.642967 352.616302 89.031105 347.022217 89.031105 339.53183 L 89.031105 306.915558 L 81.73037 306.915558 C 80.877037 306.915558 80.118515 306.251862 80.118515 305.303711 L 80.118515 299.235535 C 80.118515 299.140747 80.213333 298.951111 80.308144 298.856293 L 90.263702 292.788147 L 95.194069 279.514069 C 95.383713 278.94519 96.047409 278.4711 96.711113 278.4711 L 105.908142 278.4711 C 106.76149 278.4711 107.519997 279.134827 107.519997 280.082977 L 107.519997 292.882965 L 125.724449 292.882965 C 126.198524 292.882965 126.482956 293.262238 126.482956 293.641479 L 126.482956 305.114075 C 126.482956 305.967407 125.81926 306.725952 124.871109 306.725952 L 107.519997 306.725952 L 107.519997 339.342224 C 107.519997 341.99704 108.278519 343.893311 109.700737 345.125946 C 111.028152 346.548157 113.019257 347.211853 115.484444 347.211853 Z M 201.197037 360.675568 C 199.490372 360.675568 197.87851 359.537781 197.404434 357.925934 L 183.940735 316.681488 C 182.992599 313.6474 181.854813 309.285919 180.337769 303.502197 L 179.958527 303.502197 L 178.725922 307.958527 L 175.976303 316.776276 L 162.228149 357.925934 C 161.659256 359.537781 160.142212 360.675568 158.435562 360.675568 L 158.435562 360.675568 C 156.634064 360.675568 155.022217 359.442963 154.548141 357.736298 L 137.576309 298.571869 C 137.007401 296.675568 138.429626 294.874084 140.420746 294.874084 L 140.705185 294.874084 C 142.032593 294.874084 143.170364 295.727417 143.549622 297.05481 L 153.505173 333.084442 C 155.970367 342.565918 157.582214 349.487396 158.340744 353.943695 L 158.720001 353.943695 C 161.090363 344.462219 162.797028 338.204437 163.934814 335.075562 L 176.639999 297.434082 C 177.114075 295.917023 178.631104 294.874084 180.242966 294.874084 L 180.242966 294.874084 C 181.854813 294.874084 183.371841 295.917023 183.845917 297.5289 L 195.887421 334.980743 C 198.82666 344.462219 200.53334 350.720001 201.197037 353.848877 L 201.576309 353.848877 C 201.860733 351.194092 203.472595 344.177795 206.41185 332.800018 L 215.893341 297.149628 C 216.272598 295.917023 217.410355 294.968872 218.737793 294.968872 L 218.737793 294.968872 C 220.634079 294.968872 222.056305 296.770386 221.58223 298.666687 L 205.558517 357.831116 C 205.084442 359.537781 203.472595 360.770386 201.671112 360.770386 L 201.197037 360.770386 Z M 276.764435 360.675568 C 275.626678 360.675568 274.58371 359.822235 274.394073 358.684448 L 273.161499 350.340759 L 272.687408 350.340759 C 269.368896 354.607422 265.955566 357.546661 262.447388 359.348145 C 258.93927 361.149628 254.862213 362.00296 250.026672 362.00296 C 243.579254 362.00296 238.554077 360.391113 234.951096 357.072571 C 231.727402 354.133362 230.020752 350.151123 229.641495 345.220734 C 229.167419 338.678528 231.917038 332.23111 237.321472 328.533325 C 242.725922 324.835541 250.500748 322.93924 260.835571 322.749634 L 273.351105 322.370392 L 273.351105 318.008881 C 273.351105 311.751099 272.11853 307.010376 269.558502 303.8815 C 266.998535 300.657776 262.921478 299.140747 257.232574 299.140747 C 251.922974 299.140747 246.518524 300.373352 240.829636 302.93335 C 239.40741 303.597046 237.70076 302.93335 237.131851 301.511139 L 237.131851 301.511139 C 236.562958 300.088898 237.226685 298.477051 238.648895 297.813324 C 245.00148 295.158508 251.259262 293.831116 257.517029 293.831116 C 264.722961 293.831116 270.127411 295.727417 273.730377 299.425201 C 277.333344 303.217773 279.134796 309.001495 279.134796 316.965912 L 279.134796 358.400024 C 279.134796 359.632599 278.091827 360.675568 276.764435 360.675568 L 276.764435 360.675568 Z M 250.500748 356.408905 C 257.517029 356.408905 263.111115 354.417786 267.093353 350.340759 C 271.17038 346.358521 273.161499 340.764465 273.161499 333.558533 L 273.161499 327.111115 L 261.688904 327.585205 C 252.397049 328.059265 245.854797 329.481506 241.872604 331.946655 C 237.890366 334.411835 235.994064 338.204437 235.994064 343.324432 C 235.994064 347.401489 237.226685 350.625183 239.786667 352.900726 C 242.34668 355.271118 245.949631 356.408905 250.500748 356.408905 Z M 325.87854 293.546661 C 327.774841 293.546661 329.7659 293.641479 331.851837 293.925934 C 333.463715 294.11554 334.601471 295.727417 334.222229 297.339264 L 334.222229 297.339264 C 333.937775 298.856293 332.420746 299.804443 330.903717 299.614838 C 329.007416 299.330383 327.111115 299.140747 325.119995 299.140747 C 319.52594 299.140747 314.880005 301.511139 311.277039 306.251862 C 307.674072 310.992615 305.872589 317.06073 305.872589 324.266663 L 305.872589 357.641479 C 305.872589 359.253357 304.545197 360.675568 302.838501 360.675568 L 302.838501 360.675568 C 301.226685 360.675568 299.804443 359.348145 299.804443 357.641479 L 299.804443 297.434082 C 299.804443 296.011841 300.94223 294.779266 302.459259 294.779266 L 302.459259 294.779266 C 303.88147 294.779266 305.019257 295.822235 305.019257 297.244446 L 305.493347 306.631104 L 305.872589 306.631104 C 308.622223 301.795563 311.466675 298.382233 314.500763 296.391113 C 317.819275 294.58963 321.517029 293.546661 325.87854 293.546661 Z M 370.631104 293.546661 C 375.371857 293.546661 379.543701 294.400024 382.957031 296.106659 C 386.465179 297.813324 389.499237 300.847412 392.248901 305.019257 L 392.628143 305.019257 C 392.343689 299.899261 392.248901 294.968872 392.248901 290.038513 L 392.248901 269.368866 C 392.248901 267.75705 393.576294 266.429657 395.188141 266.429657 L 395.188141 266.429657 C 396.799988 266.429657 398.127411 267.75705 398.127411 269.368866 L 398.127411 358.494812 C 398.127411 359.632599 397.17926 360.58075 396.041504 360.58075 L 396.041504 360.58075 C 394.998535 360.58075 394.145203 359.822235 393.955566 358.779266 L 392.722961 350.530365 L 392.248901 350.530365 C 387.223694 358.020721 380.017761 361.813324 370.725922 361.813324 C 361.623688 361.813324 354.70224 358.968872 349.866669 353.374817 C 345.031097 347.685913 342.660736 339.437042 342.660736 328.628143 C 342.660736 317.250366 345.031097 308.527405 349.771851 302.554077 C 354.607422 296.58075 361.52887 293.546661 370.631104 293.546661 Z M 370.631104 299.045929 C 363.425171 299.045929 358.020752 301.605927 354.417755 306.631104 C 350.814819 311.656281 349.013336 319.051849 349.013336 328.628143 C 349.013336 347.306671 356.219269 356.598511 370.725922 356.598511 C 378.12146 356.598511 383.620758 354.417786 387.034088 350.151123 C 390.542206 345.789612 392.248901 338.678528 392.248901 328.722961 L 392.248901 327.679993 C 392.248901 317.534821 390.542206 310.139252 387.128876 305.682983 C 383.810364 301.226654 378.216278 299.045929 370.631104 299.045929 Z M 446.957031 361.908142 C 437.380737 361.908142 429.89035 358.968872 424.580719 353.090393 C 419.271118 347.211853 416.521484 338.962982 416.521484 328.343689 C 416.521484 317.819244 419.081482 309.475555 424.296295 303.122955 C 429.511108 296.770386 436.432587 293.641479 445.155548 293.641479 C 452.930389 293.641479 458.998505 296.391113 463.549652 301.795563 C 468.00589 307.200012 470.281494 314.595551 470.281494 323.88739 L 470.281494 328.722961 L 422.874084 328.722961 C 422.968903 337.730347 425.05481 344.651855 429.226685 349.392609 C 433.398529 354.133362 439.277039 356.503723 446.957031 356.503723 C 450.749634 356.503723 453.973328 356.219238 456.81778 355.745178 C 458.903717 355.365936 461.368866 354.702209 464.213318 353.659271 C 465.920013 353.090393 467.626678 354.322968 467.626678 356.124451 L 467.626678 356.124451 C 467.626678 357.167419 466.962952 358.11554 466.014801 358.494812 C 462.885925 359.727417 460.041504 360.58075 457.386688 361.149628 C 454.162964 361.623718 450.749634 361.908142 446.957031 361.908142 Z M 445.155548 298.856293 C 438.802948 298.856293 433.682953 300.94223 429.89035 305.114075 C 426.097778 309.285919 423.822235 315.354065 423.158508 323.223694 L 463.834076 323.223694 C 463.834076 315.638519 462.222229 309.665161 458.903717 305.303711 C 455.585175 301.037048 451.034088 298.856293 445.155548 298.856293 Z M 537.315552 360.675568 C 535.703674 360.675568 534.376282 359.348145 534.376282 357.736298 L 534.376282 318.008881 C 534.376282 311.371857 532.954041 306.536285 530.204468 303.597046 C 527.454773 300.562988 523.093323 299.045929 517.214844 299.045929 C 509.345184 299.045929 503.561462 301.037048 499.958496 305.019257 C 496.260773 309.001495 494.459259 315.448883 494.459259 324.36145 L 494.459259 357.736298 C 494.459259 359.348145 493.131836 360.675568 491.52002 360.675568 L 491.425171 360.675568 C 489.813324 360.675568 488.485931 359.348145 488.485931 357.736298 L 488.485931 297.5289 C 488.485931 296.011841 489.718506 294.779266 491.235535 294.779266 L 491.235535 294.779266 C 492.562958 294.779266 493.700745 295.822235 493.890381 297.149628 L 494.743683 303.786682 L 495.122986 303.786682 C 499.389648 296.959991 506.974823 293.451874 517.973328 293.451874 C 532.954041 293.451874 540.34967 301.511139 540.34967 317.534821 L 540.34967 357.641479 C 540.254822 359.348145 538.927429 360.675568 537.315552 360.675568 L 537.315552 360.675568 Z M 58.311111 265.481506 L 58.311111 265.481506 C 52.337776 265.481506 47.50222 270.127411 47.50222 275.816315 L 47.50222 276.669617 C 47.50222 282.358521 52.337776 287.004456 58.311111 287.004456 L 58.311111 287.004456 C 64.284447 287.004456 69.120003 282.358521 69.120003 276.669617 L 69.120003 275.816315 C 69.120003 270.127411 64.284447 265.481506 58.311111 265.481506 Z M 355.081482 6.921463 C 353.090363 4.930389 350.625183 3.887421 347.875549 3.887421 L 163.745178 3.887421 C 160.99556 3.887421 158.530365 4.930389 156.539261 6.921463 C 154.548141 8.912582 153.505173 11.377777 153.505173 14.127396 L 153.505173 136.912598 C 153.505173 146.109634 155.306671 155.117035 158.814819 164.124451 C 162.417786 173.131866 166.779251 181.096298 172.088882 188.11261 C 177.398529 195.128891 183.656296 201.860748 190.957031 208.497787 C 198.257782 215.134827 204.989624 220.634064 211.152603 224.99556 C 217.315567 229.35704 223.76297 233.5289 230.494827 237.416306 C 237.226685 241.303711 241.967422 243.958527 244.811859 245.285919 C 247.656311 246.708145 249.931854 247.751114 251.638519 248.509628 C 252.871124 249.17334 254.29335 249.457764 255.810364 249.457764 C 257.327393 249.457764 258.654816 249.17334 259.982239 248.509628 C 261.688904 247.751114 263.964447 246.708145 266.808868 245.285919 C 269.65332 243.863708 274.394073 241.303711 281.125916 237.416306 C 287.857788 233.5289 294.305176 229.35704 300.46814 224.99556 C 306.631104 220.634064 313.362976 215.134827 320.663727 208.497787 C 327.964447 201.860748 334.222229 195.128891 339.53186 188.11261 C 344.841492 181.096298 349.202942 173.131866 352.805939 164.124451 C 356.408875 155.117035 358.11557 146.014816 358.11557 136.912598 L 358.11557 14.127396 C 358.11557 11.377777 357.072601 9.007401 355.081482 6.921463 Z M 331.377777 138.050385 C 331.377777 182.518524 255.905182 220.728897 255.905182 220.728897 L 255.905182 30.151093 L 331.377777 30.151093 C 331.377777 30.245926 331.377777 93.58223 331.377777 138.050385 Z"/>
</svg>
