<?xml version="1.0" encoding="UTF-8"?>
<!-- Generated by Pixelmator Pro 3.4.2 -->
<svg width="512" height="256" viewBox="0 0 512 256" xmlns="http://www.w3.org/2000/svg">
    <g id="FireflyIIILogo">
        <linearGradient id="linearGradient1" x1="170.083186" y1="0.323593" x2="170.083186" y2="256" gradientUnits="userSpaceOnUse">
            <stop offset="1e-05" stop-color="#ffa284" stop-opacity="1"/>
            <stop offset="0.5" stop-color="#cd5029" stop-opacity="1"/>
        </linearGradient>
        <path id="flame" fill="url(#linearGradient1)" stroke="none" d="M 235.987259 0.323593 C 235.987259 0.323593 245.733246 33.381973 227.020355 52.628586 C 208.307083 71.875198 210.330048 93.14769 217.916595 103.277466 C 225.503128 113.407257 224.997009 121.004272 218.927689 126.575836 C 212.85878 132.1474 207.800934 136.199158 204.260742 127.082306 C 200.720535 117.965469 196.674591 117.965469 195.156982 113.407257 C 193.639343 108.84903 190.604904 100.745132 190.604904 100.745132 C 190.604904 100.745132 180.995377 115.939987 174.926071 125.056839 C 168.85675 134.173676 168.857162 148.355591 172.903091 155.952637 C 176.949036 163.549652 175.431793 172.666504 172.397354 185.328613 C 169.3629 197.990753 173.408829 217.237366 187.570053 224.834778 C 201.731232 232.432251 218.927689 238.509888 226.513824 245.600845 C 234.099991 252.691788 251.802185 259.275909 274.561401 254.211197 C 297.320618 249.146515 326.149597 225.848145 331.207001 210.14679 C 331.207001 210.14679 344.35672 195.458801 341.827972 176.212189 C 339.299316 156.965576 330.195129 157.471634 326.149139 142.78363 C 322.10321 128.095642 334.904175 131.717163 324.126221 106.499191 C 324.126221 106.499191 319.322052 94.496429 301.068756 85.849319 C 289.340363 80.293579 297.321045 55.160934 276.584778 29.836685 C 255.848526 4.512436 235.987259 0.323593 235.987259 0.323593 Z"/>
        <path id="pig-body" fill="#ffffff" stroke="none" d="M 228.661865 125.890015 L 229.549088 146.835388 C 229.549088 146.835388 213.728622 158.515778 211.584549 173.699585 L 205.272232 174.185913 C 205.272232 174.185913 200.720154 175.198853 200.720154 179.757462 C 200.720154 184.316071 200.720154 194.445862 200.720154 194.445862 C 200.720154 194.445862 202.237381 199.004089 205.777588 199.004089 L 212.281631 198.878052 C 212.281631 198.878052 215.437592 210.927429 226.68071 218.828659 L 226.68071 228.902725 C 226.68071 228.902725 225.891724 232.260757 232.795395 233.248413 C 239.699066 234.236069 248.871078 234.137299 250.350433 232.655823 C 251.829788 231.174332 251.829788 230.878036 251.829788 229.100266 C 251.829788 229.100266 260.21283 231.075562 275.598145 229.100266 L 275.598145 231.075562 C 275.598145 231.075562 276.978882 233.841003 287.038513 233.841003 C 297.098145 233.841003 300.056824 232.655823 301.832062 229.100266 L 301.832062 219.223724 C 301.832062 219.223724 316.431946 204.897232 315.935272 182.976807 C 315.508026 164.11261 309.662415 157.574768 301.809998 150.202515 C 292.866791 141.805878 274.217407 137.890411 255.281631 140.186508 C 255.282013 140.186111 245.679214 122.828278 228.661865 125.890015 Z"/>
        <path id="eye" fill="#03394d" stroke="none" d="M 230.428802 179.519638 C 230.428802 181.592407 228.7509 183.272736 226.681091 183.272736 C 224.611298 183.272736 222.933395 181.592407 222.933395 179.519638 C 222.933395 177.446869 224.611298 175.766556 226.681091 175.766556 C 228.7509 175.766556 230.428802 177.446869 230.428802 179.519638 Z"/>
        <path id="tail" fill="#cd5029" stroke="none" d="M 315.28949 170.084 C 315.28949 170.084 308.10257 166.630371 299.248535 171.662659 C 299.248535 171.662659 288.711182 168.112244 283.078186 172.687057 C 277.228577 177.437653 276.648285 183.004089 276.953613 189.589752 C 276.953613 189.589752 282.017761 172.240631 294.805328 176.722214 C 294.805328 176.722214 285.752838 192.69455 299.839508 195.490799 C 299.839508 195.490799 303.16745 195.471054 305.915131 193.809418 C 308.536133 192.224838 310.5867 189.292694 309.746063 184.006348 C 309.746063 184.006348 308.030762 178.737808 303.604156 175.544128 C 303.604156 175.544128 307.960175 172.460266 316.223297 174.671448 L 315.28949 170.084 Z"/>
        <path id="tail-negative" fill="#ffffff" stroke="none" d="M 299.552673 178.975632 C 299.552673 178.975632 292.968933 191.404663 301.764648 190.735443 C 301.764648 190.735443 306.434631 188.500977 303.692535 183.969223 C 300.873077 179.309067 299.552673 178.975632 299.552673 178.975632 Z"/>
    </g>
</svg>
