<?xml version="1.0" encoding="UTF-8"?>
<!-- Generated by Pixelmator Pro 3.4.2 -->
<svg width="512" height="256" viewBox="0 0 512 256" xmlns="http://www.w3.org/2000/svg">
    <path id="Path" fill="#0062be" stroke="none" d="M 289 128 C 289 146.225403 274.225403 161 256 161 C 237.774597 161 223 146.225403 223 128 C 223 109.774597 237.774597 95 256 95 C 274.225403 95 289 109.774597 289 128 Z"/>
    <g id="Group">
        <g id="g1">
            <path id="path1" fill="none" stroke="#0062be" stroke-width="24" stroke-opacity="0.3" d="M 140 128 C 140 63.934967 191.934967 12 256 12 C 320.065033 12 372 63.934967 372 128 C 372 192.065033 320.065033 244 256 244"/>
            <path id="path2" fill="none" stroke="#0062be" stroke-width="24" stroke-opacity="0.3" d="M 182 128 C 182 87.13092 215.13092 54 256 54 C 296.86908 54 330 87.13092 330 128 C 330 168.869064 296.86908 202 256 202"/>
        </g>
        <path id="path3" fill="none" stroke="#0062be" stroke-width="24" d="M 256 12 C 320.065033 12 372 63.934967 372 128"/>
        <path id="path4" fill="none" stroke="#0062be" stroke-width="24" d="M 256 54 C 296.86908 54 330 87.13092 330 128"/>
    </g>
</svg>
