<?xml version="1.0" encoding="UTF-8"?>
<!-- Generated by Pixelmator Pro 3.4.2 -->
<svg width="512" height="256" viewBox="0 0 512 256" xmlns="http://www.w3.org/2000/svg">
    <path id="Path" fill="#D5DADC" fill-rule="evenodd" stroke="none" d="M 283.367279 226.107361 L 283.367279 212.53447 L 288.027008 198.058472 C 320.6474 165.746368 346.277618 135.503525 350.807678 126.197647 L 345.241821 128.136719 C 345.241821 128.136719 350.418091 121.674622 349.90155 118.054672 C 345.760559 54.723007 310.033295 21.721344 300.195099 13.621902 C 314.692505 31.027191 310.725281 36.716385 310.725281 36.716385 C 304.337738 24.824371 291.22052 13.277695 288.631287 10.348938 L 285.525513 28.788025 C 297.951843 36.02626 294.67392 40.162033 294.67392 40.162033 C 291.738678 36.025726 283.799896 32.408508 283.799896 32.408508 L 282.93573 37.578064 C 286.735107 39.302002 303.819031 49.642227 303.94873 76.180695 C 303.94873 108.492798 285.567474 117.023605 282.331482 118.315582 C 271.587708 111.852921 259.937256 111.982574 257.089752 111.72493 C 254.242233 111.983109 242.591797 111.853485 231.849106 118.315582 C 228.612015 117.021408 210.230774 108.490631 210.230774 76.178528 C 210.360458 49.64003 227.448715 39.299805 231.24321 37.575897 L 230.38176 32.408508 C 230.38176 32.408508 222.440796 36.027359 219.50885 40.163666 C 219.50885 40.163666 216.227631 36.027924 228.65506 28.789658 L 225.548203 10.348938 C 222.958969 13.278229 209.842819 24.824936 203.457474 36.715286 C 203.457474 36.715286 199.48645 31.027191 213.98439 13.62085 C 204.147278 21.720245 168.419495 54.721909 164.277908 118.053589 C 163.760284 121.673538 168.938751 128.13562 168.938751 128.13562 L 163.371796 126.197647 C 167.902939 135.503525 193.533173 165.748016 226.152466 198.06012 L 230.813293 212.536102 L 230.813293 226.107361 L 226.672272 211.631378 L 217.221466 196.121597 L 217.221466 211.890106 C 221.104782 222.875778 236.248947 245.106384 236.248947 245.106384 L 236.248947 199.094467 L 178.25769 135.891342 C 178.25769 135.891342 214.502563 165.358582 224.858398 175.958069 L 230.295135 170.402313 C 223.563232 165.62001 194.309067 136.280243 191.718201 110.432953 C 213.724487 156.96286 234.823563 162.776779 250.357315 180.87381 L 250.357315 185.30043 L 263.819458 185.30043 L 263.819458 180.871628 C 279.352661 162.776779 300.45282 156.960144 322.458008 110.430786 C 319.869873 136.280792 290.614624 165.62056 283.881104 170.400131 L 289.316742 175.955887 C 299.672577 165.357483 335.917419 135.88916 335.917419 135.88916 L 277.930542 199.094467 L 277.930542 245.106384 C 277.930542 245.106384 293.077972 222.875229 296.959106 211.889557 L 296.959106 196.121063 L 287.509399 211.630829 Z M 257.089752 170.530319 C 247.381226 164.067673 222.398849 148.94516 212.044098 125.292938 C 217.795822 132.105255 224.07132 138.457779 230.813293 144.29248 C 230.813293 144.29248 230.165451 127.619812 231.459518 124.000397 C 233.789398 144.034302 238.579895 152.56456 257.089752 163.162964 C 275.600677 152.56456 280.390106 144.034302 282.719971 124.000397 C 284.014038 127.619812 283.367279 144.29248 283.367279 144.29248 C 290.109253 138.457779 296.384766 132.105255 302.136475 125.292938 C 291.78064 148.94516 266.798279 164.067673 257.089752 170.530319 Z"/>
    <path id="HEIMDALL" fill="#D5DADC" fill-rule="evenodd" stroke="none" d="M 53.428654 308.834045 L 53.428654 289.715759 L 74.60183 289.715759 L 74.60183 308.834045 L 80.169876 308.834045 L 80.169876 268.026001 L 74.60183 268.026001 L 74.60183 284.786926 L 53.428654 284.786926 L 53.428654 268.026001 L 47.885674 268.026001 L 47.885674 308.834045 L 53.428654 308.834045 Z M 139.217087 308.834045 L 139.217087 303.736359 L 115.133743 303.736359 L 115.133743 290.05072 L 136.945511 290.05072 L 136.945511 285.285858 L 109.647438 285.285858 L 109.647438 308.834045 L 139.21817 308.834045 Z M 109.647438 273.068115 L 138.743591 273.068115 L 138.743591 268.026001 L 109.647438 268.026001 L 109.647438 273.068115 Z M 172.292984 308.834045 L 172.292984 268.026001 L 166.75 268.026001 L 166.75 308.834045 L 172.292435 308.834045 Z M 207.448654 275.977264 C 207.596491 276.568776 207.762675 277.122894 207.947205 277.639618 L 218.201141 308.834045 L 223.439011 308.834045 L 233.942505 277.639618 C 234.127401 277.048818 234.303024 276.453125 234.469376 275.852539 C 234.635747 275.251933 234.783412 274.65623 234.912369 274.06543 L 234.912369 308.834045 L 240.289154 308.834045 L 240.289154 268.026001 L 232.334045 268.026001 L 221.859436 299.247681 C 221.693431 299.728088 221.536504 300.23645 221.388657 300.772766 C 221.240819 301.309102 221.092977 301.918599 220.945129 302.601257 C 220.872477 302.231954 220.76623 301.802572 220.626389 301.31311 C 220.486526 300.823608 220.269485 300.135671 219.975266 299.249298 L 209.859711 268.02655 L 201.933456 268.02655 L 201.933456 308.834045 L 207.032928 308.834045 L 207.032928 274.06543 C 207.161509 274.749186 207.300084 275.386464 207.448654 275.977264 Z M 294.040222 276.697876 C 296.164856 279.339579 297.227173 283.144358 297.227173 288.112213 C 297.227173 293.302297 296.18338 297.222361 294.095795 299.872406 C 292.008209 302.522451 288.922607 303.847839 284.838989 303.848572 L 275.303711 303.848572 L 275.303711 272.73587 L 284.838989 272.73587 C 288.848145 272.73587 291.915222 274.056539 294.040222 276.697876 Z M 285.088531 308.834045 C 290.705068 308.834045 295.079295 306.99176 298.211212 303.30719 C 301.34315 299.622579 302.908936 294.464986 302.908569 287.834412 C 302.908569 281.4257 301.398183 276.522115 298.377411 273.123657 C 295.356639 269.72522 291.000936 268.026001 285.310303 268.026001 L 269.762909 268.026001 L 269.762909 308.834045 L 285.088531 308.834045 Z M 331.356873 308.834045 L 343.82843 273.871521 L 356.105499 308.834045 L 362.119232 308.834045 L 346.904236 268.026001 L 340.782043 268.026001 L 325.620453 308.834045 L 331.355774 308.834045 Z M 412.987915 308.834045 L 412.987915 303.681335 L 392.64621 303.681335 L 392.64621 268.026001 L 387.048218 268.026001 L 387.048218 308.834045 L 412.987915 308.834045 Z M 464.078888 308.834045 L 464.078888 303.681335 L 443.736664 303.681335 L 443.736664 268.026001 L 438.138672 268.026001 L 438.138672 308.834045 L 464.078888 308.834045 Z"/>
    <path id="APPLICATIONDASHBOARD" fill="#D5DADC" fill-rule="evenodd" stroke="none" d="M 49.159584 336.761475 L 50.120193 336.761475 L 51.979294 332.08429 L 58.967274 332.08429 L 60.806217 336.761475 L 61.766281 336.761475 L 56.004261 322.178711 L 55.023495 322.178711 Z M 52.265354 331.308105 L 55.513878 323.056213 L 55.554745 323.056213 L 58.681217 331.308105 L 52.265354 331.308105 Z M 71.39035 336.761475 L 72.289391 336.761475 L 72.289391 330.266174 L 77.274971 330.266174 C 78.495155 330.347198 79.702507 329.976501 80.666794 329.224701 C 81.484474 328.464325 81.919014 327.378174 81.851349 326.263824 C 81.881813 325.534882 81.734657 324.809448 81.422531 324.149933 C 81.172035 323.653351 80.803688 323.225647 80.349678 322.904236 C 79.931892 322.616028 79.458748 322.417755 78.960258 322.32196 C 78.512787 322.231689 78.057808 322.183746 77.601349 322.178711 L 71.389809 322.178711 L 71.389809 336.762573 Z M 72.289391 322.953796 L 77.540321 322.953796 C 78.149895 322.927094 78.756744 323.049927 79.307884 323.311676 C 79.71566 323.519897 80.069069 323.820587 80.339874 324.189697 C 80.574661 324.513885 80.74147 324.882202 80.830254 325.272522 C 80.905113 325.590668 80.946205 325.915833 80.95285 326.242584 C 80.951782 326.631104 80.889824 327.017059 80.769234 327.386414 C 80.645042 327.770477 80.443268 328.124939 80.176407 328.427856 C 79.873566 328.762817 79.498764 329.024811 79.080132 329.194214 C 78.550949 329.404846 77.984383 329.505524 77.415001 329.48996 L 72.288849 329.48996 L 72.288849 322.953796 Z M 92.048073 336.761475 L 92.947113 336.761475 L 92.947113 330.266174 L 97.932693 330.266174 C 99.152885 330.34729 100.360252 329.976563 101.324516 329.224701 C 102.142464 328.464478 102.577217 327.378265 102.509621 326.263824 C 102.540062 325.534882 102.392906 324.809448 102.080803 324.149933 C 101.830193 323.653442 101.461861 323.225769 101.00795 322.904236 C 100.590118 322.616119 100.116989 322.417847 99.61853 322.32196 C 99.171059 322.23172 98.71608 322.183746 98.259613 322.178711 L 92.048073 322.178711 L 92.048073 336.762573 Z M 92.947113 322.953796 L 98.198593 322.953796 C 98.807991 322.927032 99.41468 323.049896 99.965607 323.311676 C 100.373451 323.519775 100.726883 323.820496 100.997597 324.189697 C 101.232384 324.513885 101.399185 324.882202 101.487984 325.272522 C 101.562836 325.590668 101.603928 325.915833 101.61058 326.242584 C 101.609512 326.631104 101.547554 327.017059 101.426956 327.386414 C 101.30278 327.770477 101.101006 328.124969 100.834137 328.427856 C 100.532265 328.762451 100.158607 329.024414 99.741119 329.194214 C 99.211952 329.404877 98.645378 329.505524 98.075996 329.48996 L 92.94603 329.48996 L 92.94603 322.953796 Z M 112.705254 336.761475 L 121.879814 336.761475 L 121.879814 335.985291 L 113.60321 335.985291 L 113.60321 322.178711 L 112.70417 322.178711 L 112.70417 336.762573 Z M 131.503326 336.761475 L 132.402374 336.761475 L 132.402374 322.178711 L 131.503326 322.178711 L 131.503326 336.762573 Z M 143.476898 332.462311 C 143.766739 333.353363 144.228409 334.179016 144.8358 334.892639 C 145.436844 335.587311 146.183075 336.141541 147.02182 336.516357 C 147.945007 336.92337 148.94548 337.125549 149.95433 337.108978 C 150.732864 337.113892 151.504303 336.961029 152.222092 336.659607 C 152.92099 336.366394 153.555984 335.939758 154.091537 335.403595 C 154.641541 334.84845 155.090988 334.202118 155.419937 333.493378 C 155.773727 332.733734 155.991531 331.917969 156.063431 331.083191 L 155.164383 331.083191 C 155.076782 332.447632 154.512726 333.738037 153.570633 334.729248 C 153.10556 335.214111 152.554901 335.608887 151.946381 335.893799 C 151.323563 336.187225 150.642838 336.33728 149.95433 336.332825 C 148.237396 336.36908 146.59758 335.620941 145.5 334.300598 C 144.969299 333.65799 144.566971 332.919434 144.314896 332.125122 C 143.770035 330.39679 143.770035 328.542816 144.314896 326.814484 C 144.566971 326.020172 144.969299 325.281677 145.5 324.639069 C 147.032761 322.87146 149.466522 322.17804 151.701187 322.872101 C 152.24202 323.044159 152.749756 323.30658 153.20285 323.648254 C 153.650589 323.987396 154.031708 324.406433 154.32692 324.884155 C 154.633163 325.38681 154.834625 325.946106 154.919205 326.528564 L 155.818237 326.528564 C 155.818237 326.501322 155.790995 326.361694 155.736511 326.10968 C 155.66391 325.802094 155.564743 325.501404 155.440094 325.210968 C 155.272079 324.819092 155.063339 324.445923 154.817307 324.097656 C 154.5242 323.681915 154.169189 323.313416 153.764618 323.005005 C 153.284378 322.644043 152.749954 322.361511 152.181229 322.167816 C 151.463745 321.92865 150.710464 321.814606 149.95433 321.830688 C 148.945541 321.814148 147.945145 322.016174 147.02182 322.422729 C 146.183365 322.798309 145.437256 323.352661 144.8358 324.046967 C 144.228409 324.76062 143.766739 325.586273 143.476898 326.477356 C 142.850296 328.423096 142.849915 330.516327 143.4758 332.462311 Z M 164.625 336.761475 L 165.585068 336.761475 L 167.444717 332.08429 L 174.432693 332.08429 L 176.271637 336.761475 L 177.231689 336.761475 L 171.468597 322.178711 L 170.487823 322.178711 Z M 167.730774 331.308105 L 170.979294 323.056213 L 171.020157 323.056213 L 174.146637 331.308105 L 167.730774 331.308105 Z M 188.817322 322.953796 L 188.817322 336.761475 L 189.716354 336.761475 L 189.716354 322.953796 L 194.865372 322.953796 L 194.865372 322.178711 L 183.687347 322.178711 L 183.687347 322.954895 L 188.817322 322.954895 Z M 204.448044 336.761475 L 205.347076 336.761475 L 205.347076 322.178711 L 204.448044 322.178711 L 204.448044 336.762573 Z M 229.253326 326.477356 C 228.963486 325.586273 228.501816 324.76062 227.894424 324.046967 C 227.29538 323.354492 226.55304 322.800323 225.71875 322.422729 C 223.847275 321.633301 221.736115 321.633301 219.864655 322.422729 C 219.026108 322.798431 218.279831 323.352753 217.67807 324.046967 C 217.070847 324.76062 216.60939 325.586304 216.319702 326.477356 C 215.692734 328.423096 215.692734 330.516541 216.319702 332.462311 C 216.60939 333.353333 217.070847 334.178986 217.67807 334.892639 C 218.279434 335.587158 219.025803 336.141418 219.864655 336.516357 C 221.735962 337.306519 223.847427 337.306519 225.71875 336.516357 C 226.553345 336.139526 227.295792 335.585449 227.894424 334.892639 C 228.501816 334.179016 228.963486 333.353363 229.253326 332.462311 C 229.879959 330.516418 229.879578 328.422974 229.252243 326.477356 Z M 217.157181 326.814484 C 217.409698 326.020386 217.811966 325.281952 218.34227 324.639069 C 219.439651 323.318451 221.079605 322.570251 222.796616 322.606842 C 223.675934 322.590424 224.546997 322.779144 225.340607 323.158051 C 226.067429 323.513977 226.711395 324.018555 227.230774 324.639069 C 227.760681 325.282227 228.162918 326.020569 228.415863 326.814484 C 228.960724 328.542816 228.960724 330.39679 228.415863 332.125122 C 228.162918 332.919067 227.760681 333.65744 227.230774 334.300598 C 226.711517 334.921112 226.06752 335.425507 225.340607 335.781067 C 224.547043 336.160095 223.67598 336.34903 222.796616 336.332825 C 221.079727 336.368744 219.440048 335.620667 218.34227 334.300598 C 217.811966 333.657715 217.409698 332.91925 217.157181 332.125122 C 216.611969 330.396942 216.611572 328.542908 217.156082 326.814484 Z M 240.225418 336.761475 L 241.124451 336.761475 L 241.124451 323.280609 L 241.165863 323.280609 L 250.442307 336.761475 L 251.504807 336.761475 L 251.504807 322.178711 L 250.605774 322.178711 L 250.605774 335.557709 L 250.564896 335.557709 L 241.348389 322.178711 L 240.224319 322.178711 L 240.224319 336.762573 Z M 276.922516 336.761475 L 281.662903 336.761475 C 282.702423 336.786835 283.735809 336.595581 284.697296 336.19989 C 285.510406 335.853485 286.233643 335.326111 286.811951 334.657898 C 287.382843 333.980927 287.804169 333.190918 288.048279 332.339752 C 288.320648 331.400635 288.454803 330.42688 288.446564 329.449127 C 288.448517 328.541016 288.342255 327.635925 288.130005 326.75296 C 287.93158 325.909241 287.559326 325.11618 287.036987 324.424438 C 286.488617 323.719574 285.776886 323.158783 284.963196 322.790405 C 283.934845 322.34967 282.822052 322.140442 281.703796 322.177612 L 276.923065 322.177612 L 276.923065 336.761475 Z M 277.821564 335.985291 L 277.821564 322.953796 L 281.561005 322.953796 C 281.96051 322.956451 282.359558 322.980469 282.75647 323.025696 C 283.208527 323.075806 283.653778 323.174957 284.08432 323.321472 C 284.540039 323.478363 284.972961 323.694855 285.371857 323.965302 C 285.811737 324.269653 286.186615 324.658478 286.47467 325.1091 C 286.825134 325.660767 287.08728 326.263733 287.251648 326.89621 C 287.464142 327.730103 287.56366 328.588745 287.547516 329.449127 C 287.58075 330.524933 287.403839 331.596924 287.026642 332.605011 C 286.731323 333.366577 286.266632 334.051086 285.667725 334.60672 C 285.129333 335.09256 284.491302 335.455017 283.798279 335.668854 C 283.133423 335.876434 282.441162 335.983093 281.744629 335.985291 L 277.821564 335.985291 Z M 297.110046 336.761475 L 298.070648 336.761475 L 299.929749 332.08429 L 306.917725 332.08429 L 308.756683 336.761475 L 309.717285 336.761475 L 303.954163 322.178711 L 302.973389 322.178711 Z M 300.21579 331.308105 L 303.464874 323.056213 L 303.505737 323.056213 L 306.631683 331.308105 L 300.214722 331.308105 Z M 329.761475 326.344452 C 329.742462 325.627991 329.568115 324.924194 329.250366 324.281738 C 328.966675 323.728546 328.557465 323.249359 328.055481 322.882446 C 327.531921 322.509796 326.942505 322.239624 326.31842 322.086121 C 325.62027 321.911194 324.902802 321.825378 324.183075 321.830688 C 323.597717 321.832214 323.014679 321.904266 322.446564 322.045288 C 321.884247 322.178131 321.348755 322.405975 320.863159 322.719055 C 320.39267 323.025787 320.000763 323.43866 319.718933 323.924438 C 319.413605 324.469482 319.261627 325.087067 319.279236 325.711548 C 319.254059 326.30957 319.403229 326.902039 319.708588 327.416931 C 319.994446 327.859741 320.378998 328.230347 320.832123 328.499725 C 321.330231 328.793274 321.866547 329.016541 322.425873 329.163147 C 323.025218 329.326558 323.63148 329.469635 324.244659 329.592377 C 324.871246 329.714752 325.480764 329.847473 326.073212 329.99054 C 326.624817 330.118896 327.159637 330.310791 327.666992 330.562469 C 328.113861 330.781738 328.502441 331.103729 328.800873 331.502014 C 329.102783 331.942749 329.253448 332.469513 329.230225 333.003174 C 329.251526 333.563995 329.105713 334.11853 328.811218 334.596344 C 328.542633 335.008667 328.187073 335.357239 327.76944 335.617615 C 327.348206 335.879028 326.884949 336.065674 326.400177 336.169373 C 325.940796 336.273987 325.471497 336.328766 325.000366 336.332825 C 324.305756 336.335846 323.613159 336.25705 322.936951 336.098022 C 322.322601 335.959656 321.742432 335.699005 321.230957 335.331665 C 320.747559 334.978455 320.358063 334.512238 320.096527 333.973816 C 319.808838 333.337036 319.689362 332.637146 319.749451 331.94104 L 318.850403 331.94104 C 318.813171 332.762817 318.970734 333.581787 319.310272 334.331085 C 319.613312 334.964233 320.065399 335.514465 320.627777 335.934631 C 321.214539 336.363007 321.881683 336.668701 322.589325 336.833374 C 323.379028 337.021698 324.188568 337.114258 325.000366 337.108978 C 325.589203 337.105377 326.175629 337.033386 326.747803 336.894379 C 327.336609 336.758728 327.896851 336.520111 328.402557 336.189575 C 328.901306 335.861633 329.32309 335.429596 329.638885 334.923157 C 329.982605 334.343201 330.152771 333.67688 330.129272 333.003174 C 330.151978 332.386047 330.003357 331.774658 329.69989 331.236755 C 329.41806 330.770996 329.029388 330.378906 328.56601 330.092957 C 328.069672 329.788513 327.533234 329.554749 326.97229 329.398468 C 326.380188 329.227793 325.77065 329.081278 325.143677 328.958923 C 324.530884 328.836548 323.924622 328.707275 323.32489 328.571106 C 322.77475 328.451843 322.240051 328.270203 321.73114 328.029694 C 321.292725 327.824768 320.908081 327.52063 320.607635 327.141327 C 320.306763 326.72702 320.155426 326.222961 320.178284 325.711548 C 320.15921 325.184052 320.29422 324.662415 320.566772 324.210388 C 320.817139 323.816956 321.156677 323.487976 321.557892 323.250092 C 321.962555 323.010986 322.404633 322.841766 322.865601 322.749542 C 323.29892 322.658447 323.740265 322.610657 324.183075 322.606842 C 324.807281 322.601379 325.429352 322.680328 326.032379 322.841583 C 326.560211 322.980255 327.056213 323.219574 327.493164 323.546417 C 327.899567 323.857208 328.231293 324.254913 328.464111 324.710388 C 328.713806 325.219788 328.849701 325.777344 328.862427 326.344452 L 329.761475 326.344452 Z M 340.795135 336.761475 L 341.694153 336.761475 L 341.694153 329.571686 L 351.011475 329.571686 L 351.011475 336.761475 L 351.910492 336.761475 L 351.910492 322.178711 L 351.011475 322.178711 L 351.011475 328.7966 L 341.694153 328.7966 L 341.694153 322.178711 L 340.795135 322.178711 L 340.795135 336.762573 Z M 363.066223 336.761475 L 368.909973 336.761475 C 369.613586 336.769257 370.31488 336.679993 370.99408 336.496216 C 371.575287 336.341827 372.1203 336.074585 372.598206 335.709656 C 373.035248 335.369263 373.388 334.932739 373.629089 334.434052 C 373.884338 333.884277 374.010132 333.283386 373.996887 332.67746 C 374.023651 332.04306 373.86377 331.414734 373.537048 330.870178 C 373.265991 330.437408 372.911926 330.062531 372.495209 329.767212 C 372.156982 329.525574 371.780487 329.34256 371.3815 329.2258 C 371.163818 329.152252 370.936584 329.110962 370.70694 329.103271 L 370.666077 329.062408 C 371.452271 328.968506 372.17981 328.599365 372.719727 328.020416 C 372.972534 327.74762 373.170319 327.428589 373.302185 327.080841 C 373.439301 326.722351 373.508575 326.341522 373.5065 325.957703 C 373.50531 325.488342 373.425934 325.02243 373.271667 324.579132 C 373.113068 324.1203 372.850708 323.704285 372.505035 323.363403 C 372.102112 322.979736 371.621399 322.687164 371.095459 322.505524 C 370.391388 322.269318 369.651276 322.158691 368.908875 322.178711 L 363.067322 322.178711 L 363.067322 336.762573 Z M 363.965271 328.795502 L 363.965271 322.953796 L 368.909973 322.953796 C 369.38031 322.951782 369.849548 322.999817 370.309753 323.097046 C 370.727844 323.182404 371.126251 323.345184 371.484497 323.576935 C 371.823334 323.80014 372.103638 324.101471 372.301788 324.455475 C 372.518463 324.867218 372.624176 325.328247 372.608551 325.793213 C 372.639587 326.618774 372.302734 327.415588 371.688812 327.968689 C 370.896515 328.578033 369.906647 328.872559 368.909973 328.795502 L 363.965271 328.795502 Z M 363.965271 335.985291 L 363.965271 329.571686 L 368.909973 329.571686 C 369.400055 329.573059 369.889038 329.617523 370.371338 329.70459 C 370.845245 329.785248 371.301544 329.947601 371.719879 330.184448 C 372.121765 330.416687 372.461609 330.742584 372.710449 331.134369 C 372.986206 331.600067 373.121124 332.13562 373.098938 332.676361 C 373.163788 333.63739 372.746368 334.56778 371.985229 335.158478 C 371.075836 335.757629 369.997314 336.047607 368.909973 335.985291 L 363.965271 335.985291 Z M 397.270538 326.477356 C 396.980682 325.586273 396.519012 324.76062 395.911621 324.046967 C 395.312592 323.354492 394.570282 322.800323 393.735962 322.422729 C 391.864502 321.633301 389.753326 321.633301 387.881866 322.422729 C 387.043335 322.798431 386.297058 323.352753 385.695282 324.046967 C 385.088043 324.76062 384.626587 325.586304 384.336914 326.477356 C 383.709961 328.423096 383.709961 330.516541 384.336914 332.462311 C 384.626587 333.353333 385.088043 334.178986 385.695282 334.892639 C 386.296631 335.587158 387.04303 336.141418 387.881866 336.516357 C 389.753174 337.306519 391.864624 337.306519 393.735962 336.516357 C 394.570557 336.139526 395.313019 335.585449 395.911621 334.892639 C 396.519012 334.179016 396.980682 333.353363 397.270538 332.462311 C 397.897156 330.516418 397.89679 328.422974 397.26944 326.477356 Z M 385.174377 326.814484 C 385.42691 326.020386 385.829163 325.281952 386.359467 324.639069 C 387.456879 323.318451 389.096802 322.570251 390.813812 322.606842 C 391.693176 322.590424 392.564209 322.779144 393.357819 323.158051 C 394.084656 323.513977 394.728607 324.018555 395.247955 324.639069 C 395.777893 325.282227 396.180115 326.020569 396.433075 326.814484 C 396.977936 328.542816 396.977936 330.39679 396.433075 332.125122 C 396.180115 332.919067 395.777893 333.65744 395.247955 334.300598 C 394.728729 334.921112 394.084717 335.425507 393.357819 335.781067 C 392.56424 336.160095 391.693207 336.34903 390.813812 336.332825 C 389.096954 336.368744 387.457275 335.620667 386.359467 334.300598 C 385.829163 333.657715 385.42691 332.91925 385.174377 332.125122 C 384.629181 330.396942 384.628784 328.542908 385.173279 326.814484 Z M 406.342651 336.761475 L 407.303253 336.761475 L 409.162384 332.08429 L 416.15033 332.08429 L 417.989288 336.761475 L 418.94989 336.761475 L 413.186798 322.178711 L 412.206024 322.178711 Z M 409.448425 331.308105 L 412.69751 323.056213 L 412.738373 323.056213 L 415.864288 331.308105 L 409.447327 331.308105 Z M 428.573456 336.761475 L 429.472473 336.761475 L 429.472473 330.123444 L 434.663483 330.123444 C 435.344971 330.090424 436.02533 330.208923 436.655518 330.470398 C 437.084717 330.665344 437.44458 330.985931 437.6875 331.389832 C 437.910309 331.788452 438.042786 332.231201 438.075439 332.686707 C 438.11613 333.17039 438.136658 333.657155 438.137024 334.147003 C 438.13739 334.636851 438.147563 335.110179 438.167542 335.566986 C 438.177582 335.984497 438.286011 336.393738 438.4841 336.761475 L 439.485565 336.761475 C 439.368195 336.609436 439.281403 336.436127 439.230042 336.251099 C 439.16626 336.034119 439.121765 335.811951 439.097076 335.587128 C 439.06897 335.332855 439.055298 335.077148 439.056213 334.82132 L 439.056213 333.983582 C 439.056091 333.505829 439.028839 333.028442 438.974487 332.553772 C 438.926453 332.100464 438.802094 331.658478 438.60672 331.246582 C 438.408783 330.843658 438.109741 330.498901 437.738708 330.245972 C 437.26178 329.94281 436.718109 329.760529 436.154785 329.714935 L 436.154785 329.674072 C 437.051147 329.557312 437.871277 329.109192 438.453613 328.41806 C 439.01535 327.715057 439.308716 326.835266 439.28125 325.935944 C 439.301208 325.324005 439.178864 324.71582 438.923798 324.15918 C 438.696869 323.696533 438.355804 323.299316 437.932709 323.005005 C 437.487 322.702454 436.987732 322.48764 436.461548 322.37207 C 435.871552 322.239014 435.26828 322.173767 434.663483 322.177612 L 428.572357 322.177612 L 428.572357 336.761475 Z M 429.472473 329.34729 L 429.472473 322.953796 L 434.663483 322.953796 C 435.138153 322.952301 435.611328 323.007141 436.073059 323.117218 C 436.498779 323.215698 436.901337 323.396088 437.258148 323.648254 C 437.601288 323.896545 437.881226 324.221924 438.075439 324.598206 C 438.290375 325.032623 438.395691 325.513031 438.382202 325.997467 C 438.395355 326.5159 438.297852 327.031189 438.096161 327.508972 C 437.920441 327.910889 437.654785 328.267181 437.319733 328.550415 C 436.975159 328.832123 436.574768 329.037598 436.144989 329.153351 C 435.662506 329.286255 435.163879 329.351532 434.663483 329.34729 L 429.473572 329.34729 Z M 450.028839 336.761475 L 454.769226 336.761475 C 455.808716 336.786835 456.842133 336.595581 457.803619 336.19989 C 458.61673 335.853485 459.339966 335.326111 459.918274 334.657898 C 460.48938 333.981049 460.910706 333.19104 461.154572 332.339752 C 461.426941 331.400635 461.561127 330.42688 461.552887 329.449127 C 461.555115 328.540985 461.448822 327.635864 461.236328 326.75296 C 461.037903 325.909241 460.665649 325.11618 460.143311 324.424438 C 459.59494 323.719574 458.883209 323.158783 458.069519 322.790405 C 457.041168 322.34967 455.928375 322.140442 454.810089 322.177612 L 450.028839 322.177612 L 450.028839 336.761475 Z M 450.927887 335.985291 L 450.927887 322.953796 L 454.667328 322.953796 C 455.066833 322.956451 455.465881 322.980469 455.862793 323.025696 C 456.31485 323.075806 456.760071 323.174957 457.190643 323.321472 C 457.646332 323.478363 458.079285 323.694855 458.47818 323.965302 C 458.91806 324.269806 459.293091 324.6586 459.581543 325.1091 C 459.93158 325.660889 460.193542 326.263824 460.357971 326.89621 C 460.570465 327.730103 460.669952 328.588745 460.653839 329.449127 C 460.687103 330.524933 460.510132 331.596924 460.132935 332.605011 C 459.83786 333.366699 459.373138 334.051239 458.774048 334.60672 C 458.235626 335.09256 457.597656 335.455017 456.904572 335.668854 C 456.239746 335.876465 455.547485 335.983154 454.850983 335.985291 L 450.927887 335.985291 Z"/>
</svg>
