<?xml version="1.0" encoding="UTF-8"?>
<!-- Generated by Pixelmator Pro 3.4.2 -->
<svg width="512" height="256" viewBox="0 0 512 256" xmlns="http://www.w3.org/2000/svg">
    <g id="banner-light">
        <g id="banner-light-icon">
            <linearGradient id="linearGradient1" x1="183.125" y1="106.65" x2="376.07" y2="218.045" gradientUnits="userSpaceOnUse">
                <stop offset="1e-05" stop-color="#aa5cc3" stop-opacity="1"/>
                <stop offset="1" stop-color="#00a4dc" stop-opacity="1"/>
            </linearGradient>
            <path id="inner-shape" fill="url(#linearGradient1)" stroke="none" d="M 258.710022 100.809998 C 248.490005 100.809998 215.589996 160.455002 220.610001 170.524994 C 225.630005 180.595001 291.850006 180.485001 296.809998 170.524994 C 301.77002 160.565002 268.929993 100.815002 258.710022 100.809998 Z"/>
            <linearGradient id="linearGradient2" x1="183.125" y1="106.65" x2="376.07" y2="218.045" gradientUnits="userSpaceOnUse">
                <stop offset="1e-05" stop-color="#aa5cc3" stop-opacity="1"/>
                <stop offset="1" stop-color="#00a4dc" stop-opacity="1"/>
            </linearGradient>
            <path id="outer-shape" fill="url(#linearGradient2)" stroke="none" d="M 258.710022 11.649994 C 227.915009 11.649994 128.785004 191.365005 143.899994 221.714996 C 159.014999 252.065002 358.570007 251.714996 373.52002 221.714996 C 388.470001 191.714996 289.5 11.649994 258.710022 11.649994 Z M 333.950012 195.380005 C 324.154999 215.044998 193.410004 215.264999 183.5 195.380005 C 173.589996 175.494995 238.550003 57.740005 258.725006 57.740005 C 278.899994 57.740005 343.744995 175.710007 333.950012 195.380005 Z"/>
        </g>
    </g>
</svg>
