<?xml version="1.0" encoding="UTF-8"?>
<!-- Generated by Pixelmator Pro 3.4.2 -->
<svg width="512" height="256" viewBox="0 0 512 256" xmlns="http://www.w3.org/2000/svg">
    <path id="path1052" fill="#0082c9" stroke="none" d="M 257.216766 30.113678 C 211.491577 30.113678 172.735672 61.103226 160.723938 103.09053 C 150.284485 80.819839 127.661835 65.217316 101.604454 65.217316 C 65.769402 65.217316 36.312054 94.666016 36.312054 130.490509 C 36.312054 166.314957 65.769402 195.777084 101.604454 195.777084 C 127.661835 195.777084 150.284485 180.165039 160.723938 157.890411 C 172.735672 199.88092 211.491577 230.880768 257.216766 230.880768 C 302.60379 230.880768 341.162079 200.348465 353.480988 158.831573 C 364.113312 180.600494 386.455963 195.777084 412.143219 195.777084 C 447.978302 195.777084 477.449036 166.314957 477.449036 130.490509 C 477.449036 94.666016 447.978302 65.217316 412.143219 65.217316 C 386.455963 65.217316 364.113312 80.384399 353.480988 102.149429 C 341.162079 60.635788 302.60379 30.113678 257.216766 30.113678 Z M 257.216766 68.430557 C 291.7341 68.430557 319.308441 95.983414 319.308441 130.490509 C 319.308441 164.997528 291.7341 192.563873 257.216766 192.563873 C 222.6996 192.563873 195.138641 164.997528 195.138641 130.490509 C 195.138641 95.983414 222.6996 68.430588 257.216766 68.430557 Z M 101.604454 103.534225 C 116.727242 103.534225 128.582092 115.372101 128.582092 130.490509 C 128.582092 145.608856 116.727242 157.460205 101.604454 157.460205 C 86.481636 157.460205 74.640152 145.608856 74.640152 130.490509 C 74.640152 115.372101 86.481636 103.534225 101.604454 103.534225 Z M 412.143219 103.534225 C 427.266174 103.534225 439.120911 115.372101 439.120911 130.490509 C 439.120911 145.608856 427.266083 157.460205 412.143219 157.460205 C 397.020538 157.460205 385.179077 145.608856 385.179077 130.490509 C 385.179077 115.372101 397.020569 103.534225 412.143219 103.534225 Z"/>
    <path id="path1174" fill="#0082c9" stroke="none" d="M 82.251907 261.15979 C 80.976593 261.15979 80.425766 261.887512 80.425766 263.162628 L 80.425766 315.989105 C 80.425766 317.264069 80.976593 317.983032 82.251907 317.983032 L 83.714577 317.983032 C 84.989929 317.983032 85.709091 317.264069 85.709091 315.989105 L 85.709091 272.122131 L 114.554604 316.875366 C 114.680099 317.070892 114.816826 317.201385 114.953514 317.344757 C 114.994576 317.393188 115.02285 317.443909 115.068939 317.486511 C 115.191727 317.598419 115.326508 317.65686 115.458794 317.7258 C 115.532379 317.764526 115.589699 317.821411 115.671814 317.849701 C 115.729141 317.86908 115.789566 317.857422 115.849213 317.872925 C 116.052559 317.925201 116.260483 317.979401 116.505196 317.979401 L 117.958984 317.979401 C 119.234306 317.979401 119.785088 317.260468 119.785088 315.985474 L 119.785088 263.161743 C 119.785088 261.886627 119.234306 261.158905 117.958984 261.158905 L 116.505196 261.158905 C 115.229752 261.158905 114.50177 261.886627 114.50177 263.161743 L 114.50177 307.030579 L 85.65625 262.277466 C 85.557877 262.124939 85.438965 262.032013 85.328178 261.913849 C 84.995087 261.442963 84.467537 261.160522 83.714806 261.160522 Z M 428.601715 261.886505 C 427.326416 261.886505 427.874817 262.614288 427.874817 263.889343 L 427.874817 281.923553 C 427.874817 283.744873 428.051453 285.016296 428.051453 285.016296 L 427.874817 285.016296 C 427.874817 285.016296 424.411377 277.005096 414.755157 277.005096 C 404.188019 277.005096 396.714508 285.383331 397.079132 297.768738 C 397.079132 310.154266 403.81958 318.718628 414.56897 318.718628 C 424.953979 318.718628 428.415619 310.335144 428.415619 310.335144 L 428.601532 310.335144 C 428.601532 310.335144 428.237823 311.430298 428.237823 312.88739 L 428.237823 315.980225 C 428.237823 317.255157 428.965881 317.805847 430.241333 317.805847 L 431.517761 317.805847 C 432.793121 317.805847 433.334961 317.078003 433.334961 315.80304 L 433.334961 263.889343 C 433.334961 262.614288 431.330383 261.886505 430.055054 261.886505 Z M 287.033661 262.072754 C 285.758301 262.072754 286.49292 262.800629 286.49292 264.075592 L 286.49292 308.695862 C 286.49292 317.438538 292.317444 318.532623 295.596924 318.532623 C 297.054474 318.532623 297.60025 317.80481 297.60025 316.529938 L 297.60025 315.253723 C 297.60025 313.97879 296.871277 313.437012 295.960358 313.437012 C 294.138336 313.255005 291.776245 312.705658 291.776245 307.605774 L 291.776245 264.075562 C 291.776245 262.800629 289.771698 262.072723 288.496307 262.072723 Z M 221.630432 266.805145 C 220.355087 266.805145 219.627029 267.53302 219.627029 268.807953 L 219.627029 278.281525 L 219.627029 282.836639 L 219.627029 303.414124 C 219.627029 312.885345 224.914474 318.169464 233.659744 318.169464 C 235.299454 318.169464 235.840424 317.627625 235.840424 316.352722 L 235.840424 315.253784 C 235.840424 313.796753 235.299454 313.432953 233.659744 313.250977 C 230.562439 313.06897 224.910355 311.976563 224.910355 302.687439 L 224.910355 282.650452 L 233.110123 282.650452 C 234.385468 282.650452 235.113525 282.108734 235.113525 280.83374 L 235.113525 280.284271 C 235.113525 279.009338 234.385468 278.281525 233.110123 278.281525 L 224.910355 278.281525 L 224.910355 268.807953 C 224.910355 267.53302 224.368439 266.805145 223.093094 266.805145 Z M 149.06456 277.005432 C 138.133041 277.005432 129.380844 284.841064 129.198959 297.95517 C 129.198959 310.340546 138.312378 318.896057 150.154938 318.896057 C 156.531631 318.896057 161.265549 316.166412 163.451874 314.5271 C 164.363098 313.798584 164.54808 312.88562 164.00148 311.974884 L 163.451874 311.070892 C 162.905304 309.978027 162.0009 309.792877 160.90773 310.521484 C 159.0858 311.978546 155.43364 314.163818 150.332214 314.163818 C 142.133606 314.163818 135.027634 308.332184 134.845749 298.132385 L 163.815323 298.132385 C 164.908554 298.132385 165.818741 297.222412 165.818741 296.129517 C 165.818741 284.654785 159.814026 277.005432 149.06456 277.005432 Z M 262.257019 277.005432 C 250.414505 277.005432 241.305634 285.746979 241.123749 298.132385 C 241.123749 310.517822 250.237167 319.082184 262.079742 319.082184 C 269.367462 319.082184 274.285645 315.616882 276.289734 313.977631 C 277.200928 313.066895 277.377075 312.341064 276.830505 311.248138 L 276.289734 310.521484 C 275.561035 309.428589 274.829865 309.2435 273.736694 309.972015 C 271.914795 311.611267 268.091187 314.163818 262.443176 314.163818 C 253.697968 314.163818 246.770508 307.603638 246.770508 298.132385 C 246.770508 288.479065 253.697968 281.923737 262.443176 281.923737 C 267.180237 281.923737 270.638336 284.291046 272.460175 285.56604 C 273.553406 286.294312 274.4617 286.295502 275.190521 285.20285 L 275.740143 284.290131 C 276.651428 283.197235 276.464935 282.289124 275.553864 281.560638 C 273.549713 279.921295 269.180298 277.005524 262.256897 277.005524 Z M 323.839569 277.005432 C 312.17923 277.005432 302.706268 285.930023 302.706268 297.769043 C 302.706268 309.790192 312.17923 318.896057 323.839569 318.896057 C 335.5 318.896057 344.972839 309.790192 344.972839 297.769043 C 344.972839 285.930023 335.5 277.005432 323.839569 277.005432 Z M 205.97551 277.616943 C 205.529373 277.688171 205.099991 277.988281 204.690125 278.47644 L 197.314758 287.258667 L 191.800964 293.83429 L 183.44162 283.882263 L 178.911789 278.47644 C 178.501709 277.988129 178.037216 277.720398 177.555511 277.678894 C 177.073837 277.640167 176.572495 277.818695 176.083969 278.228333 L 174.967026 279.167603 C 173.990097 279.987244 174.041275 280.893951 174.860703 281.870667 L 182.236084 290.652802 L 188.352676 297.946228 L 179.399414 308.607269 C 179.390106 308.615021 179.385849 308.626648 179.381592 308.630493 L 174.860626 314.009796 C 174.040833 314.986481 174.131943 316.017181 175.108841 316.836823 L 176.225769 317.767303 C 177.202759 318.586792 178.091965 318.380676 178.911743 317.403687 L 186.278259 308.621429 L 191.800934 302.045837 L 200.160263 312.006714 C 200.164139 312.014435 200.173813 312.022186 200.178085 312.026062 L 204.69017 317.414154 C 205.509979 318.390808 206.54097 318.472687 207.51799 317.653076 L 208.634949 316.722595 C 209.611923 315.903046 209.561172 314.996368 208.741287 314.019653 L 201.365936 305.228546 L 195.249329 297.943909 L 204.202606 287.274048 C 204.211914 287.266327 204.216156 287.258575 204.220428 287.250854 L 208.741379 281.871613 C 209.561172 280.894928 209.470062 279.864136 208.493179 279.044586 L 207.376236 278.114105 C 206.887756 277.704193 206.421829 277.546661 205.975632 277.61792 Z M 355.725677 277.918579 C 354.450256 277.918579 353.899475 278.646393 353.899475 279.921387 L 353.899475 303.41452 C 353.899475 313.796539 361.551941 318.896484 371.02597 318.896484 C 380.500031 318.896484 388.152466 313.796539 388.152466 303.41452 L 388.152466 279.921326 C 388.334503 278.646393 387.610535 277.918549 386.335175 277.918549 L 384.872528 277.918549 C 383.597198 277.918549 382.86911 278.646393 382.86911 279.921326 L 382.86911 301.961182 C 382.86911 308.1539 378.860291 313.800842 371.02597 313.800842 C 363.373901 313.800842 359.182861 308.1539 359.182861 301.961182 L 359.182861 279.921326 C 359.182861 278.646393 358.454834 277.918549 357.179413 277.918549 Z M 148.878433 281.560852 C 154.708603 281.560852 159.807327 285.748749 160.171967 294.127136 L 135.031891 294.127136 C 136.307236 285.930817 142.137329 281.560852 148.878433 281.560852 Z M 323.839569 281.924438 C 332.402649 281.924438 339.326141 288.662872 339.326141 297.769775 C 339.326141 307.240997 332.402649 314.16449 323.839569 314.16449 C 315.276581 314.16449 308.348785 307.058929 308.166962 297.769775 C 308.166962 288.844971 315.276581 281.924438 323.839569 281.924438 Z M 415.118561 281.924438 C 423.681732 281.924438 427.874817 289.759552 427.874817 297.955872 C 427.874817 309.430603 421.673584 314.16449 414.932465 314.16449 C 407.462585 314.16449 402.367035 307.791321 402.185181 297.955872 C 402.185181 287.756073 408.013092 281.924438 415.118561 281.924438 Z"/>
</svg>
