<?xml version="1.0" encoding="UTF-8"?>
<!-- Generated by Pixelmator Pro 3.4.1 -->
<svg width="436" height="648" viewBox="0 0 436 648" xmlns="http://www.w3.org/2000/svg">
    <g id="FireflyIIILogo">
        <linearGradient id="linearGradient1" x1="0.210866" y1="0.819095" x2="0.210866" y2="648" gradientUnits="userSpaceOnUse">
            <stop offset="1e-05" stop-color="#ffa284" stop-opacity="1"/>
            <stop offset="0.5" stop-color="#cd5029" stop-opacity="1"/>
        </linearGradient>
        <path id="flame" fill="url(#linearGradient1)" stroke="none" d="M 167.27002 0.819092 C 167.27002 0.819092 191.974976 84.498108 144.539978 133.216125 C 97.104004 181.934082 102.231995 235.78009 121.463013 261.421082 C 140.69397 287.062103 139.411011 306.292084 124.026001 320.395081 C 108.642029 334.498108 95.820984 344.754089 86.846985 321.677094 C 77.872986 298.600098 67.617004 298.600098 63.77002 287.062103 C 59.922974 275.524109 52.231018 255.011108 52.231018 255.011108 C 52.231018 255.011108 27.872009 293.473083 12.487 316.55011 C -2.89801 339.627106 -2.896973 375.525085 7.359009 394.755096 C 17.61499 413.985077 13.768982 437.062103 6.077026 469.113068 C -1.61499 501.164093 8.640991 549.88208 44.538025 569.113037 C 80.434998 588.344116 124.026001 603.728149 143.255981 621.677124 C 162.486023 639.626099 207.359009 656.292114 265.051025 643.472107 C 322.742981 630.6521 395.821045 571.678101 408.640991 531.934082 C 408.640991 531.934082 441.973999 494.755096 435.563965 446.037079 C 429.154053 397.319122 406.07605 398.600067 395.819946 361.421082 C 385.563965 324.242096 418.012939 333.409088 390.692017 269.57608 C 390.692017 269.57608 378.514038 239.194092 332.244019 217.306091 C 302.513977 203.243103 322.744019 139.626099 270.179993 75.524109 C 217.616028 11.422119 167.27002 0.819092 167.27002 0.819092 Z"/>
        <path id="pig-body" fill="#ffffff" stroke="none" d="M 148.700989 318.659088 L 150.950012 371.677094 C 150.950012 371.677094 110.846985 401.243073 105.411987 439.677094 L 89.411011 440.908112 C 89.411011 440.908112 77.872009 443.472076 77.872009 455.011078 C 77.872009 466.550079 77.872009 492.191071 77.872009 492.191071 C 77.872009 492.191071 81.718018 503.729095 90.692017 503.729095 L 107.179016 503.410065 C 107.179016 503.410065 115.179016 533.910034 143.679016 553.910034 L 143.679016 579.410034 C 143.679016 579.410034 141.679016 587.910034 159.179016 590.410034 C 176.679016 592.910034 199.929016 592.660034 203.679016 588.910034 C 207.429016 585.160034 207.429016 584.410034 207.429016 579.910034 C 207.429016 579.910034 228.679016 584.910034 267.679016 579.910034 L 267.679016 584.910034 C 267.679016 584.910034 271.179016 591.910034 296.679016 591.910034 C 322.179016 591.910034 329.678955 588.910034 334.178955 579.910034 L 334.178955 554.910034 C 334.178955 554.910034 371.187988 518.646118 369.928955 463.160065 C 368.845947 415.410065 354.027954 398.861115 334.123047 380.200104 C 311.453003 358.946106 264.179016 349.035095 216.179016 354.847107 C 216.179993 354.8461 191.838013 310.909088 148.700989 318.659088 Z"/>
        <path id="eye" fill="#03394d" stroke="none" d="M 153.179993 454.409088 C 153.179993 459.655792 148.926697 463.909088 143.679993 463.909088 C 138.433289 463.909088 134.179993 459.655792 134.179993 454.409088 C 134.179993 449.162384 138.433289 444.909088 143.679993 444.909088 C 148.926697 444.909088 153.179993 449.162384 153.179993 454.409088 Z"/>
        <path id="tail" fill="#cd5029" stroke="none" d="M 368.291992 430.525116 C 368.291992 430.525116 350.073975 421.783112 327.630005 434.521088 C 327.630005 434.521088 300.919006 425.534088 286.640015 437.114105 C 271.812012 449.139069 270.341003 463.229095 271.11499 479.899078 C 271.11499 479.899078 283.952026 435.9841 316.367004 447.328094 C 316.367004 447.328094 293.419983 487.758087 329.128052 494.83609 C 329.128052 494.83609 337.563965 494.786102 344.529053 490.580109 C 351.172974 486.569122 356.370972 479.147125 354.23999 465.766083 C 354.23999 465.766083 349.891968 452.430084 338.671021 444.3461 C 338.671021 444.3461 349.713013 436.54007 370.659058 442.137115 L 368.291992 430.525116 Z"/>
        <path id="tail-negative" fill="#ffffff" stroke="none" d="M 328.401001 453.032074 C 328.401001 453.032074 311.711975 484.493073 334.008057 482.799103 C 334.008057 482.799103 345.845947 477.143097 338.89502 465.672089 C 331.748047 453.876068 328.401001 453.032074 328.401001 453.032074 Z"/>
    </g>
</svg>
