<?xml version="1.0" encoding="UTF-8"?>
<!-- Generated by Pixelmator Pro 3.4.2 -->
<svg width="256" height="256" viewBox="0 0 256 256" xmlns="http://www.w3.org/2000/svg">
    <path id="Path" fill="#175ddc" stroke="none" d="M -118.897781 291.65036 C -110.933334 291.65036 -104.675552 294.779266 -100.124443 301.037048 C -95.573334 307.2948 -93.297775 315.828125 -93.297775 326.731842 C -93.297775 337.920013 -95.668144 346.548157 -100.314079 352.711121 C -104.959999 358.874084 -111.312592 361.908142 -119.371849 361.908142 C -127.336296 361.908142 -133.59407 359.06369 -138.050369 353.279999 L -139.377777 353.279999 L -141.842957 359.253357 C -142.222229 360.106659 -143.075562 360.675568 -144.023697 360.675568 L -154.263702 360.675568 C -155.59111 360.675568 -156.634079 359.632599 -156.634079 358.305176 L -156.634079 268.800018 C -156.634079 267.472595 -155.59111 266.429657 -154.263702 266.429657 L -140.515549 266.429657 C -139.188141 266.429657 -138.145187 267.472595 -138.145187 268.800018 L -138.145187 288.331848 C -138.145187 291.081482 -138.429626 295.537781 -138.903702 301.700745 L -138.145187 301.700745 C -133.783707 295.06369 -127.431114 291.65036 -118.897781 291.65036 Z M -124.871109 306.441467 C -129.422226 306.441467 -132.740738 307.863708 -134.82666 310.613312 C -136.912598 313.457764 -138.050369 318.008881 -138.050369 324.551117 L -138.050369 326.542236 C -138.050369 333.842957 -137.007401 339.05777 -134.82666 342.186676 C -132.64592 345.315552 -129.23259 346.927429 -124.58667 346.927429 C -120.794075 346.927429 -117.760002 345.220734 -115.484444 341.712585 C -113.208893 338.204437 -112.165924 333.17926 -112.165924 326.447388 C -112.165924 319.810364 -113.303703 314.785187 -115.579262 311.466675 C -117.854813 308.148163 -120.983704 306.441467 -124.871109 306.441467 Z M -62.862228 360.675568 L -76.610374 360.675568 C -77.937775 360.675568 -78.980743 359.632599 -78.980743 358.305176 L -78.980743 295.253357 C -78.980743 293.925934 -77.937775 292.882965 -76.610374 292.882965 L -62.862228 292.882965 C -61.534813 292.882965 -60.491852 293.925934 -60.491852 295.253357 L -60.491852 358.305176 C -60.491852 359.632599 -61.534813 360.675568 -62.862228 360.675568 Z M -12.515556 347.211853 C -9.76593 347.211853 -6.542213 346.737762 -2.844444 345.694794 C -1.801476 345.41037 -0.853325 346.168884 -0.853325 347.211853 L -0.853325 357.831116 C -0.853325 358.494812 -1.232597 359.06369 -1.801476 359.253357 C -6.257782 361.05481 -11.567406 361.908142 -17.825188 361.908142 C -25.220749 361.908142 -30.625191 360.011841 -33.94371 356.314087 C -37.357033 352.616302 -38.968895 347.022217 -38.968895 339.53183 L -38.968895 306.915558 L -46.26963 306.915558 C -47.122963 306.915558 -47.881485 306.251862 -47.881485 305.303711 L -47.881485 299.235535 C -47.881485 299.140747 -47.786667 298.951111 -47.691856 298.856293 L -37.736298 292.788147 L -32.805931 279.514069 C -32.616287 278.94519 -31.952591 278.4711 -31.288887 278.4711 L -22.091858 278.4711 C -21.23851 278.4711 -20.480003 279.134827 -20.480003 280.082977 L -20.480003 292.882965 L -2.275551 292.882965 C -1.801476 292.882965 -1.517044 293.262238 -1.517044 293.641479 L -1.517044 305.114075 C -1.517044 305.967407 -2.18074 306.725952 -3.128891 306.725952 L -20.480003 306.725952 L -20.480003 339.342224 C -20.480003 341.99704 -19.721481 343.893311 -18.299263 345.125946 C -16.971848 346.548157 -14.980743 347.211853 -12.515556 347.211853 Z M 73.197037 360.675568 C 71.490372 360.675568 69.87851 359.537781 69.404434 357.925934 L 55.940735 316.681488 C 54.992599 313.6474 53.854813 309.285919 52.337769 303.502197 L 51.958527 303.502197 L 50.725922 307.958527 L 47.976303 316.776276 L 34.228149 357.925934 C 33.659256 359.537781 32.142212 360.675568 30.435562 360.675568 L 30.435562 360.675568 C 28.634064 360.675568 27.022217 359.442963 26.548141 357.736298 L 9.576309 298.571869 C 9.007401 296.675568 10.429626 294.874084 12.420746 294.874084 L 12.705185 294.874084 C 14.032593 294.874084 15.170364 295.727417 15.549622 297.05481 L 25.505173 333.084442 C 27.970367 342.565918 29.582214 349.487396 30.340744 353.943695 L 30.720001 353.943695 C 33.090363 344.462219 34.797028 338.204437 35.934814 335.075562 L 48.639999 297.434082 C 49.114075 295.917023 50.631104 294.874084 52.242966 294.874084 L 52.242966 294.874084 C 53.854813 294.874084 55.371841 295.917023 55.845917 297.5289 L 67.887421 334.980743 C 70.82666 344.462219 72.53334 350.720001 73.197037 353.848877 L 73.576309 353.848877 C 73.860733 351.194092 75.472595 344.177795 78.41185 332.800018 L 87.893341 297.149628 C 88.272598 295.917023 89.410355 294.968872 90.737793 294.968872 L 90.737793 294.968872 C 92.634079 294.968872 94.056305 296.770386 93.58223 298.666687 L 77.558517 357.831116 C 77.084442 359.537781 75.472595 360.770386 73.671112 360.770386 L 73.197037 360.770386 Z M 148.764435 360.675568 C 147.626678 360.675568 146.58371 359.822235 146.394073 358.684448 L 145.161499 350.340759 L 144.687408 350.340759 C 141.368896 354.607422 137.955566 357.546661 134.447388 359.348145 C 130.93927 361.149628 126.862213 362.00296 122.026672 362.00296 C 115.579254 362.00296 110.554077 360.391113 106.951096 357.072571 C 103.727402 354.133362 102.020752 350.151123 101.641495 345.220734 C 101.167419 338.678528 103.917038 332.23111 109.321472 328.533325 C 114.725922 324.835541 122.500748 322.93924 132.835571 322.749634 L 145.351105 322.370392 L 145.351105 318.008881 C 145.351105 311.751099 144.11853 307.010376 141.558502 303.8815 C 138.998535 300.657776 134.921478 299.140747 129.232574 299.140747 C 123.922974 299.140747 118.518524 300.373352 112.829636 302.93335 C 111.40741 303.597046 109.70076 302.93335 109.131851 301.511139 L 109.131851 301.511139 C 108.562958 300.088898 109.226685 298.477051 110.648895 297.813324 C 117.00148 295.158508 123.259262 293.831116 129.517029 293.831116 C 136.722961 293.831116 142.127411 295.727417 145.730377 299.425201 C 149.333344 303.217773 151.134796 309.001495 151.134796 316.965912 L 151.134796 358.400024 C 151.134796 359.632599 150.091827 360.675568 148.764435 360.675568 L 148.764435 360.675568 Z M 122.500748 356.408905 C 129.517029 356.408905 135.111115 354.417786 139.093353 350.340759 C 143.17038 346.358521 145.161499 340.764465 145.161499 333.558533 L 145.161499 327.111115 L 133.688904 327.585205 C 124.397049 328.059265 117.854797 329.481506 113.872604 331.946655 C 109.890366 334.411835 107.994064 338.204437 107.994064 343.324432 C 107.994064 347.401489 109.226685 350.625183 111.786667 352.900726 C 114.34668 355.271118 117.949631 356.408905 122.500748 356.408905 Z M 197.87854 293.546661 C 199.774841 293.546661 201.7659 293.641479 203.851837 293.925934 C 205.463715 294.11554 206.601471 295.727417 206.222229 297.339264 L 206.222229 297.339264 C 205.937775 298.856293 204.420746 299.804443 202.903717 299.614838 C 201.007416 299.330383 199.111115 299.140747 197.119995 299.140747 C 191.52594 299.140747 186.880005 301.511139 183.277039 306.251862 C 179.674072 310.992615 177.872589 317.06073 177.872589 324.266663 L 177.872589 357.641479 C 177.872589 359.253357 176.545197 360.675568 174.838501 360.675568 L 174.838501 360.675568 C 173.226685 360.675568 171.804443 359.348145 171.804443 357.641479 L 171.804443 297.434082 C 171.804443 296.011841 172.94223 294.779266 174.459259 294.779266 L 174.459259 294.779266 C 175.88147 294.779266 177.019257 295.822235 177.019257 297.244446 L 177.493347 306.631104 L 177.872589 306.631104 C 180.622223 301.795563 183.466675 298.382233 186.500763 296.391113 C 189.819275 294.58963 193.517029 293.546661 197.87854 293.546661 Z M 242.631104 293.546661 C 247.371857 293.546661 251.543701 294.400024 254.957031 296.106659 C 258.465179 297.813324 261.499237 300.847412 264.248901 305.019257 L 264.628143 305.019257 C 264.343689 299.899261 264.248901 294.968872 264.248901 290.038513 L 264.248901 269.368866 C 264.248901 267.75705 265.576294 266.429657 267.188141 266.429657 L 267.188141 266.429657 C 268.799988 266.429657 270.127411 267.75705 270.127411 269.368866 L 270.127411 358.494812 C 270.127411 359.632599 269.17926 360.58075 268.041504 360.58075 L 268.041504 360.58075 C 266.998535 360.58075 266.145203 359.822235 265.955566 358.779266 L 264.722961 350.530365 L 264.248901 350.530365 C 259.223694 358.020721 252.017761 361.813324 242.725922 361.813324 C 233.623688 361.813324 226.70224 358.968872 221.866669 353.374817 C 217.031097 347.685913 214.660736 339.437042 214.660736 328.628143 C 214.660736 317.250366 217.031097 308.527405 221.771851 302.554077 C 226.607422 296.58075 233.52887 293.546661 242.631104 293.546661 Z M 242.631104 299.045929 C 235.425171 299.045929 230.020752 301.605927 226.417755 306.631104 C 222.814819 311.656281 221.013336 319.051849 221.013336 328.628143 C 221.013336 347.306671 228.219269 356.598511 242.725922 356.598511 C 250.12146 356.598511 255.620758 354.417786 259.034088 350.151123 C 262.542206 345.789612 264.248901 338.678528 264.248901 328.722961 L 264.248901 327.679993 C 264.248901 317.534821 262.542206 310.139252 259.128876 305.682983 C 255.810364 301.226654 250.216278 299.045929 242.631104 299.045929 Z M 318.957031 361.908142 C 309.380737 361.908142 301.89035 358.968872 296.580719 353.090393 C 291.271118 347.211853 288.521484 338.962982 288.521484 328.343689 C 288.521484 317.819244 291.081482 309.475555 296.296295 303.122955 C 301.511108 296.770386 308.432587 293.641479 317.155548 293.641479 C 324.930389 293.641479 330.998505 296.391113 335.549652 301.795563 C 340.00589 307.200012 342.281494 314.595551 342.281494 323.88739 L 342.281494 328.722961 L 294.874084 328.722961 C 294.968903 337.730347 297.05481 344.651855 301.226685 349.392609 C 305.398529 354.133362 311.277039 356.503723 318.957031 356.503723 C 322.749634 356.503723 325.973328 356.219238 328.81778 355.745178 C 330.903717 355.365936 333.368866 354.702209 336.213318 353.659271 C 337.920013 353.090393 339.626678 354.322968 339.626678 356.124451 L 339.626678 356.124451 C 339.626678 357.167419 338.962952 358.11554 338.014801 358.494812 C 334.885925 359.727417 332.041504 360.58075 329.386688 361.149628 C 326.162964 361.623718 322.749634 361.908142 318.957031 361.908142 Z M 317.155548 298.856293 C 310.802948 298.856293 305.682953 300.94223 301.89035 305.114075 C 298.097778 309.285919 295.822235 315.354065 295.158508 323.223694 L 335.834076 323.223694 C 335.834076 315.638519 334.222229 309.665161 330.903717 305.303711 C 327.585175 301.037048 323.034088 298.856293 317.155548 298.856293 Z M 409.315552 360.675568 C 407.703674 360.675568 406.376282 359.348145 406.376282 357.736298 L 406.376282 318.008881 C 406.376282 311.371857 404.954041 306.536285 402.204468 303.597046 C 399.454773 300.562988 395.093323 299.045929 389.214844 299.045929 C 381.345184 299.045929 375.561462 301.037048 371.958496 305.019257 C 368.260773 309.001495 366.459259 315.448883 366.459259 324.36145 L 366.459259 357.736298 C 366.459259 359.348145 365.131836 360.675568 363.52002 360.675568 L 363.425171 360.675568 C 361.813324 360.675568 360.485931 359.348145 360.485931 357.736298 L 360.485931 297.5289 C 360.485931 296.011841 361.718506 294.779266 363.235535 294.779266 L 363.235535 294.779266 C 364.562958 294.779266 365.700745 295.822235 365.890381 297.149628 L 366.743683 303.786682 L 367.122986 303.786682 C 371.389648 296.959991 378.974823 293.451874 389.973328 293.451874 C 404.954041 293.451874 412.34967 301.511139 412.34967 317.534821 L 412.34967 357.641479 C 412.254822 359.348145 410.927429 360.675568 409.315552 360.675568 L 409.315552 360.675568 Z M -69.688889 265.481506 L -69.688889 265.481506 C -75.662224 265.481506 -80.49778 270.127411 -80.49778 275.816315 L -80.49778 276.669617 C -80.49778 282.358521 -75.662224 287.004456 -69.688889 287.004456 L -69.688889 287.004456 C -63.715553 287.004456 -58.879997 282.358521 -58.879997 276.669617 L -58.879997 275.816315 C -58.879997 270.127411 -63.715553 265.481506 -69.688889 265.481506 Z M 227.081482 6.921463 C 225.090363 4.930389 222.625183 3.887421 219.875549 3.887421 L 35.745178 3.887421 C 32.99556 3.887421 30.530365 4.930389 28.539261 6.921463 C 26.548141 8.912582 25.505173 11.377777 25.505173 14.127396 L 25.505173 136.912598 C 25.505173 146.109634 27.306671 155.117035 30.814819 164.124451 C 34.417786 173.131866 38.779251 181.096298 44.088882 188.11261 C 49.398529 195.128891 55.656296 201.860748 62.957031 208.497787 C 70.257782 215.134827 76.989624 220.634064 83.152603 224.99556 C 89.315567 229.35704 95.76297 233.5289 102.494827 237.416306 C 109.226685 241.303711 113.967422 243.958527 116.811859 245.285919 C 119.656311 246.708145 121.931854 247.751114 123.638519 248.509628 C 124.871124 249.17334 126.29335 249.457764 127.810364 249.457764 C 129.327393 249.457764 130.654816 249.17334 131.982239 248.509628 C 133.688904 247.751114 135.964447 246.708145 138.808868 245.285919 C 141.65332 243.863708 146.394073 241.303711 153.125916 237.416306 C 159.857788 233.5289 166.305176 229.35704 172.46814 224.99556 C 178.631104 220.634064 185.362976 215.134827 192.663727 208.497787 C 199.964447 201.860748 206.222229 195.128891 211.53186 188.11261 C 216.841492 181.096298 221.202942 173.131866 224.805939 164.124451 C 228.408875 155.117035 230.11557 146.014816 230.11557 136.912598 L 230.11557 14.127396 C 230.11557 11.377777 229.072601 9.007401 227.081482 6.921463 Z M 203.377777 138.050385 C 203.377777 182.518524 127.905182 220.728897 127.905182 220.728897 L 127.905182 30.151093 L 203.377777 30.151093 C 203.377777 30.245926 203.377777 93.58223 203.377777 138.050385 Z"/>
</svg>
