<?xml version="1.0" encoding="UTF-8"?>
<!-- Generated by Pixelmator Pro 3.4.2 -->
<svg width="256" height="256" viewBox="0 0 256 256" xmlns="http://www.w3.org/2000/svg">
    <g id="FireflyIIILogo">
        <linearGradient id="linearGradient1" x1="42.083186" y1="0.323593" x2="42.083186" y2="256" gradientUnits="userSpaceOnUse">
            <stop offset="1e-05" stop-color="#ffa284" stop-opacity="1"/>
            <stop offset="0.5" stop-color="#cd5029" stop-opacity="1"/>
        </linearGradient>
        <path id="flame" fill="url(#linearGradient1)" stroke="none" d="M 107.987259 0.323593 C 107.987259 0.323593 117.733246 33.381973 99.020355 52.628586 C 80.307083 71.875198 82.330048 93.14769 89.916595 103.277466 C 97.503128 113.407257 96.997009 121.004272 90.927689 126.575836 C 84.85878 132.1474 79.800934 136.199158 76.260742 127.082306 C 72.720535 117.965469 68.674591 117.965469 67.156982 113.407257 C 65.639343 108.84903 62.604904 100.745132 62.604904 100.745132 C 62.604904 100.745132 52.995377 115.939987 46.926071 125.056839 C 40.85675 134.173676 40.857162 148.355591 44.903091 155.952637 C 48.949036 163.549652 47.431793 172.666504 44.397354 185.328613 C 41.3629 197.990753 45.408829 217.237366 59.570053 224.834778 C 73.731232 232.432251 90.927689 238.509888 98.513824 245.600845 C 106.099991 252.691788 123.802185 259.275909 146.561401 254.211197 C 169.320618 249.146515 198.149597 225.848145 203.207001 210.14679 C 203.207001 210.14679 216.35672 195.458801 213.827972 176.212189 C 211.299316 156.965576 202.195129 157.471634 198.149139 142.78363 C 194.10321 128.095642 206.904175 131.717163 196.126221 106.499191 C 196.126221 106.499191 191.322052 94.496429 173.068756 85.849319 C 161.340363 80.293579 169.321045 55.160934 148.584778 29.836685 C 127.848526 4.512436 107.987259 0.323593 107.987259 0.323593 Z"/>
        <path id="pig-body" fill="#ffffff" stroke="none" d="M 100.661865 125.890015 L 101.549088 146.835388 C 101.549088 146.835388 85.728622 158.515778 83.584549 173.699585 L 77.272232 174.185913 C 77.272232 174.185913 72.720154 175.198853 72.720154 179.757462 C 72.720154 184.316071 72.720154 194.445862 72.720154 194.445862 C 72.720154 194.445862 74.237381 199.004089 77.777588 199.004089 L 84.281631 198.878052 C 84.281631 198.878052 87.437592 210.927429 98.68071 218.828659 L 98.68071 228.902725 C 98.68071 228.902725 97.891724 232.260757 104.795395 233.248413 C 111.699066 234.236069 120.871078 234.137299 122.350433 232.655823 C 123.829788 231.174332 123.829788 230.878036 123.829788 229.100266 C 123.829788 229.100266 132.21283 231.075562 147.598145 229.100266 L 147.598145 231.075562 C 147.598145 231.075562 148.978882 233.841003 159.038513 233.841003 C 169.098145 233.841003 172.056824 232.655823 173.832062 229.100266 L 173.832062 219.223724 C 173.832062 219.223724 188.431946 204.897232 187.935272 182.976807 C 187.508026 164.11261 181.662415 157.574768 173.809998 150.202515 C 164.866791 141.805878 146.217407 137.890411 127.281631 140.186508 C 127.282013 140.186111 117.679214 122.828278 100.661865 125.890015 Z"/>
        <path id="eye" fill="#03394d" stroke="none" d="M 102.428802 179.519638 C 102.428802 181.592407 100.7509 183.272736 98.681091 183.272736 C 96.611298 183.272736 94.933395 181.592407 94.933395 179.519638 C 94.933395 177.446869 96.611298 175.766556 98.681091 175.766556 C 100.7509 175.766556 102.428802 177.446869 102.428802 179.519638 Z"/>
        <path id="tail" fill="#cd5029" stroke="none" d="M 187.28949 170.084 C 187.28949 170.084 180.10257 166.630371 171.248535 171.662659 C 171.248535 171.662659 160.711182 168.112244 155.078186 172.687057 C 149.228577 177.437653 148.648285 183.004089 148.953613 189.589752 C 148.953613 189.589752 154.017761 172.240631 166.805328 176.722214 C 166.805328 176.722214 157.752838 192.69455 171.839508 195.490799 C 171.839508 195.490799 175.16745 195.471054 177.915131 193.809418 C 180.536133 192.224838 182.5867 189.292694 181.746063 184.006348 C 181.746063 184.006348 180.030762 178.737808 175.604156 175.544128 C 175.604156 175.544128 179.960175 172.460266 188.223297 174.671448 L 187.28949 170.084 Z"/>
        <path id="tail-negative" fill="#ffffff" stroke="none" d="M 171.552673 178.975632 C 171.552673 178.975632 164.968933 191.404663 173.764648 190.735443 C 173.764648 190.735443 178.434631 188.500977 175.692535 183.969223 C 172.873077 179.309067 171.552673 178.975632 171.552673 178.975632 Z"/>
    </g>
</svg>
