<?xml version="1.0" encoding="UTF-8"?>
<!-- Generated by Pixelmator Pro 3.4.2 -->
<svg width="256" height="256" viewBox="0 0 256 256" xmlns="http://www.w3.org/2000/svg">
    <path id="Path" fill="#d5dadc" fill-rule="evenodd" stroke="none" d="M 155.367279 226.107361 L 155.367279 212.53447 L 160.027008 198.058472 C 192.6474 165.746368 218.277618 135.503525 222.807678 126.197647 L 217.241821 128.136719 C 217.241821 128.136719 222.418091 121.674622 221.90155 118.054672 C 217.760559 54.723007 182.033295 21.721344 172.195099 13.621902 C 186.692505 31.027191 182.725281 36.716385 182.725281 36.716385 C 176.337738 24.824371 163.22052 13.277695 160.631287 10.348938 L 157.525513 28.788025 C 169.951843 36.02626 166.67392 40.162033 166.67392 40.162033 C 163.738678 36.025726 155.799896 32.408508 155.799896 32.408508 L 154.93573 37.578064 C 158.735107 39.302002 175.819031 49.642227 175.94873 76.180695 C 175.94873 108.492798 157.567474 117.023605 154.331482 118.315582 C 143.587708 111.852921 131.937256 111.982574 129.089752 111.72493 C 126.242233 111.983109 114.591797 111.853485 103.849106 118.315582 C 100.612015 117.021408 82.230774 108.490631 82.230774 76.178528 C 82.360458 49.64003 99.448715 39.299805 103.24321 37.575897 L 102.38176 32.408508 C 102.38176 32.408508 94.440796 36.027359 91.50885 40.163666 C 91.50885 40.163666 88.227631 36.027924 100.65506 28.789658 L 97.548203 10.348938 C 94.958969 13.278229 81.842819 24.824936 75.457474 36.715286 C 75.457474 36.715286 71.48645 31.027191 85.98439 13.62085 C 76.147278 21.720245 40.419495 54.721909 36.277908 118.053589 C 35.760284 121.673538 40.938751 128.13562 40.938751 128.13562 L 35.371796 126.197647 C 39.902939 135.503525 65.533173 165.748016 98.152466 198.06012 L 102.813293 212.536102 L 102.813293 226.107361 L 98.672272 211.631378 L 89.221466 196.121597 L 89.221466 211.890106 C 93.104782 222.875778 108.248947 245.106384 108.248947 245.106384 L 108.248947 199.094467 L 50.25769 135.891342 C 50.25769 135.891342 86.502563 165.358582 96.858398 175.958069 L 102.295135 170.402313 C 95.563232 165.62001 66.309067 136.280243 63.718201 110.432953 C 85.724487 156.96286 106.823563 162.776779 122.357315 180.87381 L 122.357315 185.30043 L 135.819458 185.30043 L 135.819458 180.871628 C 151.352661 162.776779 172.45282 156.960144 194.458008 110.430786 C 191.869873 136.280792 162.614624 165.62056 155.881104 170.400131 L 161.316742 175.955887 C 171.672577 165.357483 207.917419 135.88916 207.917419 135.88916 L 149.930542 199.094467 L 149.930542 245.106384 C 149.930542 245.106384 165.077972 222.875229 168.959106 211.889557 L 168.959106 196.121063 L 159.509399 211.630829 Z M 129.089752 170.530319 C 119.381226 164.067673 94.398849 148.94516 84.044098 125.292938 C 89.795822 132.105255 96.07132 138.457779 102.813293 144.29248 C 102.813293 144.29248 102.165451 127.619812 103.459518 124.000397 C 105.789398 144.034302 110.579895 152.56456 129.089752 163.162964 C 147.600677 152.56456 152.390106 144.034302 154.719971 124.000397 C 156.014038 127.619812 155.367279 144.29248 155.367279 144.29248 C 162.109253 138.457779 168.384766 132.105255 174.136475 125.292938 C 163.78064 148.94516 138.798279 164.067673 129.089752 170.530319 Z"/>
    <path id="HEIMDALL" fill="#d5dadc" fill-rule="evenodd" stroke="none" d="M -74.571342 308.834045 L -74.571342 289.715759 L -53.39817 289.715759 L -53.39817 308.834045 L -47.830124 308.834045 L -47.830124 268.026001 L -53.39817 268.026001 L -53.39817 284.786926 L -74.571342 284.786926 L -74.571342 268.026001 L -80.114326 268.026001 L -80.114326 308.834045 L -74.571342 308.834045 Z M 11.217087 308.834045 L 11.217087 303.736359 L -12.866257 303.736359 L -12.866257 290.05072 L 8.945511 290.05072 L 8.945511 285.285858 L -18.352562 285.285858 L -18.352562 308.834045 L 11.21817 308.834045 Z M -18.352562 273.068115 L 10.743591 273.068115 L 10.743591 268.026001 L -18.352562 268.026001 L -18.352562 273.068115 Z M 44.292984 308.834045 L 44.292984 268.026001 L 38.75 268.026001 L 38.75 308.834045 L 44.292435 308.834045 Z M 79.448654 275.977264 C 79.596497 276.568787 79.76268 277.122894 79.947205 277.639618 L 90.201141 308.834045 L 95.439011 308.834045 L 105.942505 277.639618 C 106.127396 277.048828 106.303024 276.453125 106.469376 275.852539 C 106.635742 275.251923 106.783417 274.656219 106.912369 274.06543 L 106.912369 308.834045 L 112.289154 308.834045 L 112.289154 268.026001 L 104.334045 268.026001 L 93.859436 299.247681 C 93.693436 299.728088 93.536499 300.23645 93.388657 300.772766 C 93.240814 301.309113 93.092972 301.91861 92.945129 302.601257 C 92.872482 302.231964 92.766235 301.802582 92.626389 301.31311 C 92.486526 300.823608 92.269485 300.135681 91.975266 299.249298 L 81.859711 268.02655 L 73.933456 268.02655 L 73.933456 308.834045 L 79.032928 308.834045 L 79.032928 274.06543 C 79.161514 274.749176 79.300079 275.386475 79.448654 275.977264 Z M 166.040222 276.697876 C 168.164856 279.339569 169.227173 283.144348 169.227173 288.112213 C 169.227173 293.302307 168.18338 297.222351 166.095795 299.872406 C 164.008209 302.522461 160.922607 303.847839 156.838989 303.848572 L 147.303711 303.848572 L 147.303711 272.73587 L 156.838989 272.73587 C 160.848145 272.73587 163.915222 274.056549 166.040222 276.697876 Z M 157.088531 308.834045 C 162.705078 308.834045 167.079285 306.99176 170.211212 303.30719 C 173.34314 299.622589 174.908936 294.464996 174.908569 287.834412 C 174.908569 281.42569 173.398193 276.522125 170.377411 273.123657 C 167.356628 269.72522 163.000946 268.026001 157.310303 268.026001 L 141.762909 268.026001 L 141.762909 308.834045 L 157.088531 308.834045 Z M 203.356873 308.834045 L 215.82843 273.871521 L 228.105499 308.834045 L 234.119232 308.834045 L 218.904236 268.026001 L 212.782043 268.026001 L 197.620453 308.834045 L 203.355774 308.834045 Z M 284.987915 308.834045 L 284.987915 303.681335 L 264.64621 303.681335 L 264.64621 268.026001 L 259.048218 268.026001 L 259.048218 308.834045 L 284.987915 308.834045 Z M 336.078888 308.834045 L 336.078888 303.681335 L 315.736664 303.681335 L 315.736664 268.026001 L 310.138672 268.026001 L 310.138672 308.834045 L 336.078888 308.834045 Z"/>
    <path id="APPLICATIONDASHBOARD" fill="#d5dadc" fill-rule="evenodd" stroke="none" d="M -78.840416 336.761475 L -77.879807 336.761475 L -76.020706 332.08429 L -69.032722 332.08429 L -67.193779 336.761475 L -66.233719 336.761475 L -71.995735 322.178711 L -72.976501 322.178711 Z M -75.734642 331.308105 L -72.486122 323.056213 L -72.445251 323.056213 L -69.318779 331.308105 L -75.734642 331.308105 Z M -56.60965 336.761475 L -55.710609 336.761475 L -55.710609 330.266174 L -50.725029 330.266174 C -49.504845 330.347198 -48.297493 329.976501 -47.333206 329.224701 C -46.515526 328.464325 -46.080986 327.378174 -46.148651 326.263824 C -46.118187 325.534882 -46.265343 324.809448 -46.577469 324.149933 C -46.827965 323.653351 -47.196312 323.225647 -47.650322 322.904236 C -48.068108 322.616028 -48.541252 322.417755 -49.039742 322.32196 C -49.487213 322.231689 -49.942192 322.183746 -50.398651 322.178711 L -56.610191 322.178711 L -56.610191 336.762573 Z M -55.710609 322.953796 L -50.459679 322.953796 C -49.850105 322.927094 -49.243256 323.049927 -48.692116 323.311676 C -48.28434 323.519897 -47.930931 323.820587 -47.660126 324.189697 C -47.425339 324.513885 -47.25853 324.882202 -47.169746 325.272522 C -47.094887 325.590668 -47.053795 325.915833 -47.04715 326.242584 C -47.048218 326.631104 -47.110176 327.017059 -47.230766 327.386414 C -47.354958 327.770477 -47.556732 328.124939 -47.823593 328.427856 C -48.126434 328.762817 -48.501236 329.024811 -48.919868 329.194214 C -49.449051 329.404846 -50.015617 329.505524 -50.584999 329.48996 L -55.711151 329.48996 L -55.711151 322.953796 Z M -35.951927 336.761475 L -35.052887 336.761475 L -35.052887 330.266174 L -30.067307 330.266174 C -28.847115 330.34729 -27.639748 329.976563 -26.675484 329.224701 C -25.857536 328.464478 -25.422783 327.378265 -25.490379 326.263824 C -25.459938 325.534882 -25.607094 324.809448 -25.919197 324.149933 C -26.169807 323.653442 -26.538139 323.225769 -26.99205 322.904236 C -27.409882 322.616119 -27.883011 322.417847 -28.38147 322.32196 C -28.828941 322.23172 -29.28392 322.183746 -29.740387 322.178711 L -35.951927 322.178711 L -35.951927 336.762573 Z M -35.052887 322.953796 L -29.801407 322.953796 C -29.192009 322.927032 -28.58532 323.049896 -28.034393 323.311676 C -27.626549 323.519775 -27.273117 323.820496 -27.002403 324.189697 C -26.767616 324.513885 -26.600815 324.882202 -26.512016 325.272522 C -26.437164 325.590668 -26.396072 325.915833 -26.38942 326.242584 C -26.390488 326.631104 -26.452446 327.017059 -26.573044 327.386414 C -26.69722 327.770477 -26.898994 328.124969 -27.165863 328.427856 C -27.467735 328.762451 -27.841393 329.024414 -28.258881 329.194214 C -28.788048 329.404877 -29.354622 329.505524 -29.924004 329.48996 L -35.05397 329.48996 L -35.05397 322.953796 Z M -15.294746 336.761475 L -6.120186 336.761475 L -6.120186 335.985291 L -14.39679 335.985291 L -14.39679 322.178711 L -15.29583 322.178711 L -15.29583 336.762573 Z M 3.503326 336.761475 L 4.402374 336.761475 L 4.402374 322.178711 L 3.503326 322.178711 L 3.503326 336.762573 Z M 15.476898 332.462311 C 15.766739 333.353363 16.228409 334.179016 16.8358 334.892639 C 17.436844 335.587311 18.183075 336.141541 19.02182 336.516357 C 19.945007 336.92337 20.94548 337.125549 21.95433 337.108978 C 22.732864 337.113892 23.504303 336.961029 24.222092 336.659607 C 24.92099 336.366394 25.555984 335.939758 26.091537 335.403595 C 26.641541 334.84845 27.090988 334.202118 27.419937 333.493378 C 27.773727 332.733734 27.991531 331.917969 28.063431 331.083191 L 27.164383 331.083191 C 27.076782 332.447632 26.512726 333.738037 25.570633 334.729248 C 25.10556 335.214111 24.554901 335.608887 23.946381 335.893799 C 23.323563 336.187225 22.642838 336.33728 21.95433 336.332825 C 20.237396 336.36908 18.59758 335.620941 17.5 334.300598 C 16.969299 333.65799 16.566971 332.919434 16.314896 332.125122 C 15.770035 330.39679 15.770035 328.542816 16.314896 326.814484 C 16.566971 326.020172 16.969299 325.281677 17.5 324.639069 C 19.032761 322.87146 21.466522 322.17804 23.701187 322.872101 C 24.24202 323.044159 24.749756 323.30658 25.20285 323.648254 C 25.650589 323.987396 26.031708 324.406433 26.32692 324.884155 C 26.633163 325.38681 26.834625 325.946106 26.919205 326.528564 L 27.818237 326.528564 C 27.818237 326.501312 27.791 326.361694 27.736511 326.10968 C 27.66391 325.802094 27.564743 325.501404 27.440094 325.210968 C 27.272079 324.819092 27.063339 324.445923 26.817307 324.097656 C 26.5242 323.681915 26.169189 323.313416 25.764618 323.005005 C 25.284378 322.644043 24.749954 322.361511 24.181229 322.167816 C 23.463745 321.92865 22.710464 321.814606 21.95433 321.830688 C 20.945541 321.814148 19.945145 322.016174 19.02182 322.422729 C 18.183365 322.798309 17.437256 323.352661 16.8358 324.046967 C 16.228409 324.76062 15.766739 325.586273 15.476898 326.477356 C 14.850296 328.423096 14.849915 330.516327 15.4758 332.462311 Z M 36.625 336.761475 L 37.585068 336.761475 L 39.444717 332.08429 L 46.432693 332.08429 L 48.271637 336.761475 L 49.231689 336.761475 L 43.468597 322.178711 L 42.487823 322.178711 Z M 39.730774 331.308105 L 42.979294 323.056213 L 43.020157 323.056213 L 46.146637 331.308105 L 39.730774 331.308105 Z M 60.817322 322.953796 L 60.817322 336.761475 L 61.716354 336.761475 L 61.716354 322.953796 L 66.865372 322.953796 L 66.865372 322.178711 L 55.687347 322.178711 L 55.687347 322.954895 L 60.817322 322.954895 Z M 76.448044 336.761475 L 77.347076 336.761475 L 77.347076 322.178711 L 76.448044 322.178711 L 76.448044 336.762573 Z M 101.253326 326.477356 C 100.963486 325.586273 100.501816 324.76062 99.894424 324.046967 C 99.29538 323.354492 98.55304 322.800323 97.71875 322.422729 C 95.847275 321.633301 93.736115 321.633301 91.864655 322.422729 C 91.026108 322.798431 90.279831 323.352753 89.67807 324.046967 C 89.070847 324.76062 88.60939 325.586304 88.319702 326.477356 C 87.692734 328.423096 87.692734 330.516541 88.319702 332.462311 C 88.60939 333.353333 89.070847 334.178986 89.67807 334.892639 C 90.279434 335.587158 91.025803 336.141418 91.864655 336.516357 C 93.735962 337.306519 95.847427 337.306519 97.71875 336.516357 C 98.553345 336.139526 99.295792 335.585449 99.894424 334.892639 C 100.501816 334.179016 100.963486 333.353363 101.253326 332.462311 C 101.879959 330.516418 101.879578 328.422974 101.252243 326.477356 Z M 89.157181 326.814484 C 89.409698 326.020386 89.811966 325.281952 90.34227 324.639069 C 91.439651 323.318451 93.079605 322.570251 94.796616 322.606842 C 95.675934 322.590424 96.546997 322.779144 97.340607 323.158051 C 98.067429 323.513977 98.711395 324.018555 99.230774 324.639069 C 99.760681 325.282227 100.162918 326.020569 100.415863 326.814484 C 100.960724 328.542816 100.960724 330.39679 100.415863 332.125122 C 100.162918 332.919067 99.760681 333.65744 99.230774 334.300598 C 98.711517 334.921112 98.06752 335.425507 97.340607 335.781067 C 96.547043 336.160095 95.67598 336.34903 94.796616 336.332825 C 93.079727 336.368744 91.440048 335.620667 90.34227 334.300598 C 89.811966 333.657715 89.409698 332.91925 89.157181 332.125122 C 88.611969 330.396942 88.611572 328.542908 89.156082 326.814484 Z M 112.225418 336.761475 L 113.124451 336.761475 L 113.124451 323.280609 L 113.165863 323.280609 L 122.442307 336.761475 L 123.504807 336.761475 L 123.504807 322.178711 L 122.605774 322.178711 L 122.605774 335.557709 L 122.564896 335.557709 L 113.348389 322.178711 L 112.224319 322.178711 L 112.224319 336.762573 Z M 148.922516 336.761475 L 153.662903 336.761475 C 154.702423 336.786835 155.735809 336.595581 156.697296 336.19989 C 157.510406 335.853485 158.233643 335.326111 158.811951 334.657898 C 159.382843 333.980927 159.804169 333.190918 160.048279 332.339752 C 160.320648 331.400635 160.454803 330.42688 160.446564 329.449127 C 160.448517 328.541016 160.342255 327.635925 160.130005 326.75296 C 159.93158 325.909241 159.559326 325.11618 159.036987 324.424438 C 158.488617 323.719574 157.776886 323.158783 156.963196 322.790405 C 155.934845 322.34967 154.822052 322.140442 153.703796 322.177612 L 148.923065 322.177612 L 148.923065 336.761475 Z M 149.821564 335.985291 L 149.821564 322.953796 L 153.561005 322.953796 C 153.96051 322.956451 154.359558 322.980469 154.75647 323.025696 C 155.208527 323.075806 155.653778 323.174957 156.08432 323.321472 C 156.540039 323.478363 156.972961 323.694855 157.371857 323.965302 C 157.811737 324.269653 158.186615 324.658478 158.47467 325.1091 C 158.825134 325.660767 159.08728 326.263733 159.251648 326.89621 C 159.464142 327.730103 159.56366 328.588745 159.547516 329.449127 C 159.58075 330.524933 159.403839 331.596924 159.026642 332.605011 C 158.731323 333.366577 158.266632 334.051086 157.667725 334.60672 C 157.129333 335.09256 156.491302 335.455017 155.798279 335.668854 C 155.133423 335.876434 154.441162 335.983093 153.744629 335.985291 L 149.821564 335.985291 Z M 169.110046 336.761475 L 170.070648 336.761475 L 171.929749 332.08429 L 178.917725 332.08429 L 180.756683 336.761475 L 181.717285 336.761475 L 175.954163 322.178711 L 174.973389 322.178711 Z M 172.21579 331.308105 L 175.464874 323.056213 L 175.505737 323.056213 L 178.631683 331.308105 L 172.214722 331.308105 Z M 201.761475 326.344452 C 201.742462 325.627991 201.568115 324.924194 201.250366 324.281738 C 200.966675 323.728546 200.557465 323.249359 200.055481 322.882446 C 199.531921 322.509796 198.942505 322.239624 198.31842 322.086121 C 197.62027 321.911194 196.902802 321.825378 196.183075 321.830688 C 195.597717 321.832214 195.014679 321.904266 194.446564 322.045288 C 193.884247 322.178131 193.348755 322.405975 192.863159 322.719055 C 192.39267 323.025787 192.000763 323.43866 191.718933 323.924438 C 191.413605 324.469482 191.261627 325.087067 191.279236 325.711548 C 191.254059 326.30957 191.403229 326.902039 191.708588 327.416931 C 191.994446 327.859741 192.378998 328.230347 192.832123 328.499725 C 193.330231 328.793274 193.866547 329.016541 194.425873 329.163147 C 195.025208 329.326569 195.63147 329.469635 196.244659 329.592377 C 196.871246 329.714752 197.480774 329.847473 198.073212 329.99054 C 198.624817 330.118896 199.159637 330.310791 199.666992 330.562469 C 200.113861 330.781738 200.502441 331.103729 200.800873 331.502014 C 201.102783 331.942749 201.253448 332.469513 201.230225 333.003174 C 201.251526 333.563995 201.105713 334.11853 200.811218 334.596344 C 200.542633 335.008667 200.187073 335.357239 199.76944 335.617615 C 199.348206 335.879028 198.884949 336.065674 198.400177 336.169373 C 197.940796 336.273987 197.471497 336.328766 197.000366 336.332825 C 196.305756 336.335846 195.613159 336.25705 194.936951 336.098022 C 194.322601 335.959656 193.742432 335.699005 193.230957 335.331665 C 192.747559 334.978455 192.358063 334.512238 192.096527 333.973816 C 191.808838 333.337036 191.689362 332.637146 191.749451 331.94104 L 190.850403 331.94104 C 190.813171 332.762817 190.970734 333.581787 191.310272 334.331085 C 191.613312 334.964233 192.065399 335.514465 192.627777 335.934631 C 193.214539 336.363007 193.881683 336.668701 194.589325 336.833374 C 195.379028 337.021698 196.188568 337.114258 197.000366 337.108978 C 197.589203 337.105377 198.175629 337.033386 198.747803 336.894379 C 199.336609 336.758728 199.896851 336.520111 200.402557 336.189575 C 200.901306 335.861633 201.32309 335.429596 201.638885 334.923157 C 201.982605 334.343201 202.152771 333.67688 202.129272 333.003174 C 202.151978 332.386047 202.003357 331.774658 201.69989 331.236755 C 201.41806 330.770996 201.029388 330.378906 200.56601 330.092957 C 200.069672 329.788513 199.533234 329.554749 198.97229 329.398468 C 198.380188 329.227783 197.77066 329.081268 197.143677 328.958923 C 196.530884 328.836548 195.924622 328.707275 195.32489 328.571106 C 194.77475 328.451843 194.240051 328.270203 193.73114 328.029694 C 193.292725 327.824768 192.908081 327.52063 192.607635 327.141327 C 192.306763 326.72702 192.155426 326.222961 192.178284 325.711548 C 192.15921 325.184052 192.29422 324.662415 192.566772 324.210388 C 192.817139 323.816956 193.156677 323.487976 193.557892 323.250092 C 193.962555 323.010986 194.404633 322.841766 194.865601 322.749542 C 195.29892 322.658447 195.740265 322.610657 196.183075 322.606842 C 196.807281 322.601379 197.429352 322.680328 198.032379 322.841583 C 198.560211 322.980255 199.056213 323.219574 199.493164 323.546417 C 199.899567 323.857208 200.231293 324.254913 200.464111 324.710388 C 200.713806 325.219788 200.849701 325.777344 200.862427 326.344452 L 201.761475 326.344452 Z M 212.795135 336.761475 L 213.694153 336.761475 L 213.694153 329.571686 L 223.011475 329.571686 L 223.011475 336.761475 L 223.910492 336.761475 L 223.910492 322.178711 L 223.011475 322.178711 L 223.011475 328.7966 L 213.694153 328.7966 L 213.694153 322.178711 L 212.795135 322.178711 L 212.795135 336.762573 Z M 235.066223 336.761475 L 240.909973 336.761475 C 241.613586 336.769257 242.31488 336.679993 242.99408 336.496216 C 243.575287 336.341827 244.1203 336.074585 244.598206 335.709656 C 245.035248 335.369263 245.388 334.932739 245.629089 334.434052 C 245.884338 333.884277 246.010132 333.283386 245.996887 332.67746 C 246.023651 332.04306 245.86377 331.414734 245.537048 330.870178 C 245.265991 330.437408 244.911926 330.062531 244.495209 329.767212 C 244.156982 329.525574 243.780487 329.34256 243.3815 329.2258 C 243.163818 329.152252 242.936584 329.110962 242.70694 329.103271 L 242.666077 329.062408 C 243.452271 328.968506 244.17981 328.599365 244.719727 328.020416 C 244.972534 327.74762 245.170319 327.428589 245.302185 327.080841 C 245.439301 326.722351 245.508575 326.341522 245.5065 325.957703 C 245.50531 325.488342 245.425934 325.02243 245.271667 324.579132 C 245.113068 324.1203 244.850708 323.704285 244.505035 323.363403 C 244.102112 322.979736 243.621399 322.687164 243.095459 322.505524 C 242.391388 322.269318 241.651276 322.158691 240.908875 322.178711 L 235.067322 322.178711 L 235.067322 336.762573 Z M 235.965271 328.795502 L 235.965271 322.953796 L 240.909973 322.953796 C 241.38031 322.951782 241.849548 322.999817 242.309753 323.097046 C 242.727844 323.182404 243.126251 323.345184 243.484497 323.576935 C 243.823334 323.80014 244.103638 324.101471 244.301788 324.455475 C 244.518463 324.867218 244.624176 325.328247 244.608551 325.793213 C 244.639587 326.618774 244.302734 327.415588 243.688812 327.968689 C 242.896515 328.578033 241.906647 328.872559 240.909973 328.795502 L 235.965271 328.795502 Z M 235.965271 335.985291 L 235.965271 329.571686 L 240.909973 329.571686 C 241.400055 329.573059 241.889038 329.617523 242.371338 329.70459 C 242.845245 329.785248 243.301544 329.947601 243.719879 330.184448 C 244.121765 330.416687 244.461609 330.742584 244.710449 331.134369 C 244.986206 331.600067 245.121124 332.13562 245.098938 332.676361 C 245.163788 333.63739 244.746368 334.56778 243.985229 335.158478 C 243.075836 335.757629 241.997314 336.047607 240.909973 335.985291 L 235.965271 335.985291 Z M 269.270538 326.477356 C 268.980682 325.586273 268.519012 324.76062 267.911621 324.046967 C 267.312592 323.354492 266.570282 322.800323 265.735962 322.422729 C 263.864502 321.633301 261.753326 321.633301 259.881866 322.422729 C 259.043335 322.798431 258.297058 323.352753 257.695282 324.046967 C 257.088043 324.76062 256.626587 325.586304 256.336914 326.477356 C 255.709961 328.423096 255.709961 330.516541 256.336914 332.462311 C 256.626587 333.353333 257.088043 334.178986 257.695282 334.892639 C 258.296631 335.587158 259.04303 336.141418 259.881866 336.516357 C 261.753174 337.306519 263.864624 337.306519 265.735962 336.516357 C 266.570557 336.139526 267.313019 335.585449 267.911621 334.892639 C 268.519012 334.179016 268.980682 333.353363 269.270538 332.462311 C 269.897156 330.516418 269.89679 328.422974 269.26944 326.477356 Z M 257.174377 326.814484 C 257.42691 326.020386 257.829163 325.281952 258.359467 324.639069 C 259.456879 323.318451 261.096802 322.570251 262.813812 322.606842 C 263.693176 322.590424 264.564209 322.779144 265.357819 323.158051 C 266.084656 323.513977 266.728607 324.018555 267.247955 324.639069 C 267.777893 325.282227 268.180115 326.020569 268.433075 326.814484 C 268.977936 328.542816 268.977936 330.39679 268.433075 332.125122 C 268.180115 332.919067 267.777893 333.65744 267.247955 334.300598 C 266.728729 334.921112 266.084717 335.425507 265.357819 335.781067 C 264.56424 336.160095 263.693207 336.34903 262.813812 336.332825 C 261.096954 336.368744 259.457275 335.620667 258.359467 334.300598 C 257.829163 333.657715 257.42691 332.91925 257.174377 332.125122 C 256.629181 330.396942 256.628784 328.542908 257.173279 326.814484 Z M 278.342651 336.761475 L 279.303253 336.761475 L 281.162384 332.08429 L 288.15033 332.08429 L 289.989288 336.761475 L 290.94989 336.761475 L 285.186798 322.178711 L 284.206024 322.178711 Z M 281.448425 331.308105 L 284.69751 323.056213 L 284.738373 323.056213 L 287.864288 331.308105 L 281.447327 331.308105 Z M 300.573456 336.761475 L 301.472473 336.761475 L 301.472473 330.123444 L 306.663483 330.123444 C 307.344971 330.090424 308.02533 330.208923 308.655518 330.470398 C 309.084717 330.665344 309.44458 330.985931 309.6875 331.389832 C 309.910309 331.788452 310.042786 332.231201 310.075439 332.686707 C 310.116119 333.17038 310.136658 333.657166 310.137024 334.147003 C 310.13739 334.636841 310.147552 335.110168 310.167542 335.566986 C 310.177582 335.984497 310.286011 336.393738 310.4841 336.761475 L 311.485565 336.761475 C 311.368195 336.609436 311.281403 336.436127 311.230042 336.251099 C 311.16626 336.034119 311.121765 335.811951 311.097076 335.587128 C 311.06897 335.332855 311.055298 335.077148 311.056213 334.82132 L 311.056213 333.983582 C 311.056091 333.505829 311.028839 333.028442 310.974487 332.553772 C 310.926453 332.100464 310.802094 331.658478 310.60672 331.246582 C 310.408783 330.843658 310.109741 330.498901 309.738708 330.245972 C 309.26178 329.94281 308.718109 329.760529 308.154785 329.714935 L 308.154785 329.674072 C 309.051147 329.557312 309.871277 329.109192 310.453613 328.41806 C 311.01535 327.715057 311.308716 326.835266 311.28125 325.935944 C 311.301208 325.324005 311.178864 324.71582 310.923798 324.15918 C 310.696869 323.696533 310.355804 323.299316 309.932709 323.005005 C 309.487 322.702454 308.987732 322.48764 308.461548 322.37207 C 307.871552 322.239014 307.26828 322.173767 306.663483 322.177612 L 300.572357 322.177612 L 300.572357 336.761475 Z M 301.472473 329.34729 L 301.472473 322.953796 L 306.663483 322.953796 C 307.138153 322.952301 307.611328 323.007141 308.073059 323.117218 C 308.498779 323.215698 308.901337 323.396088 309.258148 323.648254 C 309.601288 323.896545 309.881226 324.221924 310.075439 324.598206 C 310.290375 325.032623 310.395691 325.513031 310.382202 325.997467 C 310.395355 326.5159 310.297852 327.031189 310.096161 327.508972 C 309.920441 327.910889 309.654785 328.267181 309.319733 328.550415 C 308.975159 328.832123 308.574768 329.037598 308.144989 329.153351 C 307.662506 329.286255 307.163879 329.351532 306.663483 329.34729 L 301.473572 329.34729 Z M 322.028839 336.761475 L 326.769226 336.761475 C 327.808716 336.786835 328.842133 336.595581 329.803619 336.19989 C 330.61673 335.853485 331.339966 335.326111 331.918274 334.657898 C 332.48938 333.981049 332.910706 333.19104 333.154572 332.339752 C 333.426941 331.400635 333.561127 330.42688 333.552887 329.449127 C 333.555115 328.540985 333.448822 327.635864 333.236328 326.75296 C 333.037903 325.909241 332.665649 325.11618 332.143311 324.424438 C 331.59494 323.719574 330.883209 323.158783 330.069519 322.790405 C 329.041168 322.34967 327.928375 322.140442 326.810089 322.177612 L 322.028839 322.177612 L 322.028839 336.761475 Z M 322.927887 335.985291 L 322.927887 322.953796 L 326.667328 322.953796 C 327.066833 322.956451 327.465881 322.980469 327.862793 323.025696 C 328.31485 323.075806 328.760071 323.174957 329.190643 323.321472 C 329.646332 323.478363 330.079285 323.694855 330.47818 323.965302 C 330.91806 324.269806 331.293091 324.6586 331.581543 325.1091 C 331.93158 325.660889 332.193542 326.263824 332.357971 326.89621 C 332.570465 327.730103 332.669952 328.588745 332.653839 329.449127 C 332.687103 330.524933 332.510132 331.596924 332.132935 332.605011 C 331.83786 333.366699 331.373138 334.051239 330.774048 334.60672 C 330.235626 335.09256 329.597656 335.455017 328.904572 335.668854 C 328.239746 335.876465 327.547485 335.983154 326.850983 335.985291 L 322.927887 335.985291 Z"/>
</svg>
