<?xml version="1.0" encoding="UTF-8"?>
<!-- Generated by Pixelmator Pro 3.4.2 -->
<svg width="256" height="256" viewBox="0 0 256 256" xmlns="http://www.w3.org/2000/svg">
    <path id="path1052" fill="#0082c9" stroke="none" d="M 128.608383 79.056839 C 105.745789 79.056839 86.367836 94.551605 80.361969 115.545258 C 75.142242 104.409912 63.830917 96.608658 50.802227 96.608658 C 32.884701 96.608658 18.156027 111.333008 18.156027 129.245255 C 18.156027 147.157471 32.884701 161.88855 50.802227 161.88855 C 63.830917 161.88855 75.142242 154.08252 80.361969 142.945206 C 86.367836 163.94046 105.745789 179.440384 128.608383 179.440384 C 151.301895 179.440384 170.581039 164.174225 176.740494 143.415787 C 182.056656 154.300247 193.227982 161.88855 206.071609 161.88855 C 223.989151 161.88855 238.724518 147.157471 238.724518 129.245255 C 238.724518 111.333008 223.989151 96.608658 206.071609 96.608658 C 193.227982 96.608658 182.056656 104.1922 176.740494 115.074707 C 170.581039 94.317886 151.301895 79.056839 128.608383 79.056839 Z M 128.608383 98.215271 C 145.86705 98.215271 159.654221 111.991699 159.654221 129.245255 C 159.654221 146.498764 145.86705 160.281937 128.608383 160.281937 C 111.3498 160.281937 97.569321 146.498764 97.569321 129.245255 C 97.569321 111.991699 111.3498 98.215286 128.608383 98.215271 Z M 50.802227 115.767105 C 58.363621 115.767105 64.291046 121.68605 64.291046 129.245255 C 64.291046 136.804428 58.363621 142.730103 50.802227 142.730103 C 43.240818 142.730103 37.320076 136.804428 37.320076 129.245255 C 37.320076 121.68605 43.240818 115.767105 50.802227 115.767105 Z M 206.071609 115.767105 C 213.633087 115.767105 219.560455 121.68605 219.560455 129.245255 C 219.560455 136.804428 213.633041 142.730103 206.071609 142.730103 C 198.510269 142.730103 192.589539 136.804428 192.589539 129.245255 C 192.589539 121.68605 198.510284 115.767105 206.071609 115.767105 Z"/>
</svg>
