<?xml version="1.0" encoding="UTF-8"?>
<!-- Generated by Pixelmator Pro 3.3.6 -->
<svg width="429" height="85" viewBox="0 0 429 85" xmlns="http://www.w3.org/2000/svg">
    <g id="SvgjsG2193">
        <path id="Path" fill="#111111" stroke="none" opacity="0" d="M 0 -0.800003 L 1.225714 -0.800003 L 1.225714 0.425713 L 0 0.425713 Z"/>
        <path id="path1" fill="#111111" stroke="none" d="M 0 78.871429 L 429 78.871429 L 429 85 L 0 85 Z"/>
    </g>
    <g id="SvgjsG2194">
        <path id="path2" fill="#111111" stroke="none" d="M 49.428905 22.872726 C 48.792885 22.872726 48.315887 23.131077 47.99791 23.647846 L 25.579008 57.335823 L 3.100483 23.647846 C 2.782505 23.131077 2.305507 22.872726 1.66949 22.872726 C 0.556475 22.872726 -3e-06 23.449116 -3e-06 24.601841 C -3e-06 24.919819 0.099392 25.217945 0.298121 25.496212 L 25.579008 63.357925 L 50.80027 25.496212 C 50.999001 25.217945 51.098396 24.899967 51.098396 24.542217 C 51.098396 23.429203 50.541916 22.872726 49.428905 22.872726 Z M 80.731895 21.918728 C 73.49762 21.918728 67.296646 23.886345 62.128971 27.821579 C 56.842194 31.836262 54.198879 36.725338 54.198879 42.489262 C 54.198879 48.253185 56.842194 53.142418 62.128971 57.156952 C 67.256699 61.052376 73.457672 63.000172 80.731895 63.000172 C 88.006104 63.000172 94.187401 61.052376 99.275177 57.156952 C 104.561966 53.102467 107.205269 48.213238 107.205269 42.489262 C 107.205269 36.765289 104.561966 31.87606 99.275177 27.821579 C 94.107651 23.886345 87.926804 21.918728 80.731895 21.918728 Z M 103.925911 42.489262 C 103.925911 47.21944 101.660179 51.264236 97.128693 54.622898 C 92.597214 57.98156 87.131409 59.661186 80.731895 59.661186 C 74.332367 59.661186 68.866562 57.981709 64.335091 54.622898 C 59.803608 51.264084 57.537868 47.219296 57.537868 42.489262 C 57.537868 37.719284 59.803608 33.654667 64.335091 30.296005 C 68.866562 26.937344 74.332367 25.257713 80.731895 25.257713 C 87.131409 25.257713 92.597214 26.937195 97.128693 30.296005 C 101.660179 33.654816 103.925911 37.719284 103.925911 42.489262 Z M 161.284912 58.647568 L 147.92897 49.763481 L 148.405975 49.763481 C 152.182144 49.763481 155.392197 48.431881 158.03537 45.768623 C 160.678528 43.105366 162.000397 39.905426 162.000397 36.169041 C 162.000397 32.392857 160.678696 29.182812 158.03537 26.539646 C 155.392014 23.896481 152.182297 22.5746 148.405975 22.5746 L 110.961632 22.5746 L 110.961632 60.018936 C 110.961632 61.13195 111.518112 61.688427 112.631126 61.688427 C 113.744133 61.688427 114.300613 61.13195 114.300613 60.018936 L 114.300613 49.763481 L 141.966492 49.763481 L 159.436539 61.390301 C 159.714813 61.589035 160.012924 61.688427 160.330917 61.688427 C 160.927155 61.688427 161.384308 61.430069 161.702286 60.913303 C 161.901001 60.635036 162.000397 60.336914 162.000397 60.018936 C 162.000397 59.422684 161.761902 58.965546 161.284912 58.647568 Z M 114.300613 25.913586 L 148.405975 25.913586 C 151.228149 25.913586 153.64296 26.917248 155.65036 28.924637 C 157.657791 30.932022 158.661423 33.346855 158.661423 36.169041 C 158.661423 38.991226 157.657761 41.406029 155.65036 43.413448 C 153.642975 45.42086 151.228149 46.424496 148.405975 46.424496 L 114.300613 46.424496 L 114.300613 25.913586 Z M 229.912979 58.945686 L 197.834869 21.680229 L 166.770386 58.945686 C 166.531876 59.223957 166.412628 59.561852 166.412628 59.959373 C 166.412628 61.112095 166.989029 61.688488 168.141754 61.688488 C 168.618744 61.688488 169.016266 61.489761 169.334244 61.092239 L 169.334244 61.092239 L 178.754944 49.763542 L 217.63028 49.763542 L 227.408737 61.092239 C 227.766495 61.489761 228.20372 61.688488 228.72049 61.688488 C 229.793732 61.688488 230.330353 61.151863 230.330353 60.078621 C 230.330353 59.641388 230.191238 59.263786 229.912979 58.945808 Z M 181.557312 46.424496 L 197.894485 26.807957 L 214.827911 46.424496 L 181.557312 46.424496 Z M 283.813751 22.93235 C 282.700714 22.93235 282.144257 23.488827 282.144257 24.601841 L 282.144257 57.037697 L 234.444458 21.262856 L 234.444458 60.376686 C 234.444458 61.449928 235.000931 61.986549 236.113968 61.986549 C 237.226959 61.986549 237.783447 61.449928 237.783447 60.376686 L 237.783447 27.881203 L 285.483246 63.656044 L 285.483246 24.601841 C 285.483246 23.488827 284.926758 22.93235 283.813751 22.93235 Z M 338.191498 22.5746 L 290.491699 22.5746 C 289.378693 22.5746 288.822205 23.131077 288.822205 24.244095 C 288.822205 25.357109 289.378693 25.913586 290.491699 25.913586 L 312.672089 25.913586 L 312.672089 60.018936 C 312.672089 61.13195 313.228577 61.688427 314.341614 61.688427 C 315.45462 61.688427 316.011108 61.13195 316.011108 60.018936 L 316.011108 25.913586 L 338.191498 25.913586 C 339.304504 25.913586 339.860992 25.357109 339.860992 24.244095 C 339.860992 23.131077 339.304504 22.5746 338.191498 22.5746 Z M 376.351318 26.688709 C 372.575134 24.184471 368.063477 22.93235 362.816528 22.93235 C 357.490082 22.93235 352.958771 24.184471 349.222076 26.688709 C 345.24704 29.351994 343.259583 32.631355 343.259583 36.526791 C 343.259583 40.382572 345.24704 43.641811 349.222076 46.305244 C 352.958588 48.809483 357.490234 50.061604 362.816528 50.061604 C 368.103302 50.061604 372.614655 48.809483 376.351318 46.305244 C 377.305328 45.669228 378.199707 44.933876 379.034424 44.099129 L 379.034424 44.456879 C 379.034424 49.107609 377.484192 52.685093 374.383728 55.189331 C 371.481934 57.534523 367.626434 58.707191 362.816528 58.707191 C 359.875061 58.707191 357.122345 58.220238 354.558472 57.246384 C 351.994629 56.272533 349.997192 54.950829 348.566193 53.281342 C 347.850708 52.486362 347.075562 52.446594 346.240845 53.16209 C 345.843323 53.480068 345.644592 53.897442 345.644592 54.414215 C 345.644592 54.811729 345.783691 55.169479 346.061951 55.487453 L 346.061951 55.487453 C 347.810913 57.514694 350.166077 59.104736 353.127502 60.257435 C 356.088898 61.41013 359.318329 61.986549 362.816528 61.986549 C 368.46106 61.986549 373.01236 60.595329 376.470581 57.81282 C 380.405792 54.632881 382.373444 50.180855 382.373444 44.456879 L 382.373444 36.526791 C 382.373444 32.631355 380.365997 29.352146 376.351318 26.688709 Z M 362.816528 46.782246 C 358.324829 46.782246 354.498871 45.77858 351.338745 43.771194 C 348.17865 41.763809 346.598602 39.34898 346.598602 36.526791 C 346.598602 33.704601 348.188629 31.279812 351.368561 29.252571 C 354.548492 27.22533 358.364349 26.211708 362.816528 26.211708 C 367.268677 26.211708 371.084686 27.22533 374.264465 29.252571 C 377.444244 31.279812 379.034424 33.704601 379.034424 36.526791 C 379.034424 39.34898 377.454376 41.763779 374.294281 43.771194 C 371.134155 45.77861 367.308044 46.782246 362.816528 46.782246 Z M 427.330475 46.424496 L 423.037506 46.424496 L 423.037506 24.244095 C 423.037506 23.131077 422.481018 22.5746 421.368011 22.5746 C 420.255005 22.5746 419.698517 23.131077 419.698517 24.244095 L 419.698517 46.424496 L 391.853729 46.424496 L 399.12796 24.780716 C 399.286987 24.224239 399.197571 23.71743 398.85968 23.260284 C 398.521759 22.803143 398.074585 22.5746 397.518127 22.5746 C 396.723145 22.5746 396.20636 22.952206 395.967865 23.70747 L 387.262665 49.763481 L 419.698517 49.763481 L 419.698517 60.018936 C 419.698517 61.13195 420.255005 61.688427 421.368011 61.688427 C 422.481018 61.688427 423.037506 61.13195 423.037506 60.018936 L 423.037506 49.763481 L 427.330475 49.763481 C 428.443481 49.763481 428.999969 49.207001 428.999969 48.093987 C 428.999969 46.980976 428.443481 46.424496 427.330475 46.424496 Z"/>
    </g>
</svg>
