<?xml version="1.0" encoding="UTF-8"?>
<!-- Generated by Pixelmator Pro 3.4.2 -->
<svg width="256" height="256" viewBox="0 0 256 256" xmlns="http://www.w3.org/2000/svg">
    <path id="Path" fill="#0062be" stroke="none" d="M 161 128 C 161 146.225403 146.225403 161 128 161 C 109.774597 161 95 146.225403 95 128 C 95 109.774597 109.774597 95 128 95 C 146.225403 95 161 109.774597 161 128 Z"/>
    <g id="Group">
        <g id="g1">
            <path id="path1" fill="none" stroke="#0062be" stroke-width="24" stroke-opacity="0.3" d="M 12 128 C 12 63.934967 63.934967 12 128 12 C 192.065033 12 244 63.934967 244 128 C 244 192.065033 192.065033 244 128 244"/>
            <path id="path2" fill="none" stroke="#0062be" stroke-width="24" stroke-opacity="0.3" d="M 54 128 C 54 87.13092 87.13092 54 128 54 C 168.86908 54 202 87.13092 202 128 C 202 168.869064 168.86908 202 128 202"/>
        </g>
        <path id="path3" fill="none" stroke="#0062be" stroke-width="24" d="M 128 12 C 192.065033 12 244 63.934967 244 128"/>
        <path id="path4" fill="none" stroke="#0062be" stroke-width="24" d="M 128 54 C 168.86908 54 202 87.13092 202 128"/>
    </g>
</svg>
