<?xml version="1.0" encoding="UTF-8"?>
<!-- Generated by Pixelmator Pro 3.5.3 -->
<svg width="310" height="310" viewBox="0 0 310 310" xmlns="http://www.w3.org/2000/svg">
    <path id="Path" fill="#f4f4f5" stroke="none" d="M 300.700012 248.100006 C 284.700012 251.899994 276.600006 255.399994 256.800018 268.300018 C 225.800003 288.300018 192 297.600006 192 297.600006 C 192 297.600006 189.199997 301.800018 181.100006 303.700012 C 167.100006 307.100006 114.400002 310 109.599998 310.100006 C 96.699997 310.200012 88.800003 306.800018 86.599998 301.5 C 79.900002 285.5 96.199997 278.5 96.199997 278.5 C 96.199997 278.5 92.599998 276.300018 90.5 274.300018 C 88.599998 272.399994 86.599998 268.600006 86 270 C 83.5 276.100006 82.200005 291 75.5 297.700012 C 66.300003 307 48.900002 303.899994 38.600002 298.5 C 27.300001 292.5 39.400002 278.399994 39.400002 278.399994 C 39.400002 278.399994 33.299999 282 28.4 274.600006 C 24 267.800018 19.9 256.200012 21 241.899994 C 22.4 225.399994 40.600002 209.600006 40.600002 209.600006 C 40.600002 209.600006 37.400002 185.5 47.900002 160.800003 C 57.400002 138.300003 83 120.199997 83 120.199997 C 83 120.199997 61.5 96.5 69.5 75 C 74.700005 61 76.800003 61.100006 78.5 60.5 C 84.5 58.199997 90.300003 55.699997 94.599998 51 C 116.099998 27.799988 143.5 32.200012 143.5 32.200012 C 143.5 32.200012 156.300003 -7.100006 168.300003 0.600006 C 172 3 185.300003 32.600006 185.300003 32.600006 C 185.300003 32.600006 199.5 24.299988 201.100006 27.399994 C 209.699997 44.100006 210.699997 76 206.899994 95.400009 C 200.5 127.400009 184.5 144.600006 178.100006 155.400009 C 176.600006 157.900009 195.300003 165.800003 207.100006 198.5 C 218 228.399994 208.300003 253.5 210 256.300018 C 210.300003 256.800018 210.399994 257 210.399994 257 C 210.399994 257 222.899994 258 248 242.5 C 261.399994 234.200012 277.299988 224.899994 295.399994 224.700012 C 312.899994 224.399994 313.799988 245 300.700012 248.100006 Z"/>
</svg>
