<?xml version="1.0" encoding="UTF-8"?>
<!-- Generated by Pixelmator Pro 3.4.2 -->
<svg width="256" height="256" viewBox="0 0 256 256" xmlns="http://www.w3.org/2000/svg">
    <g id="banner-light">
        <g id="banner-light-icon">
            <linearGradient id="linearGradient1" x1="55.125" y1="106.65" x2="248.07" y2="218.045" gradientUnits="userSpaceOnUse">
                <stop offset="1e-05" stop-color="#aa5cc3" stop-opacity="1"/>
                <stop offset="1" stop-color="#00a4dc" stop-opacity="1"/>
            </linearGradient>
            <path id="inner-shape" fill="url(#linearGradient1)" stroke="none" d="M 130.710022 100.809998 C 120.490005 100.809998 87.589996 160.455002 92.610001 170.524994 C 97.630005 180.595001 163.850006 180.485001 168.809998 170.524994 C 173.77002 160.565002 140.929993 100.815002 130.710022 100.809998 Z"/>
            <linearGradient id="linearGradient2" x1="55.125" y1="106.65" x2="248.07" y2="218.045" gradientUnits="userSpaceOnUse">
                <stop offset="1e-05" stop-color="#aa5cc3" stop-opacity="1"/>
                <stop offset="1" stop-color="#00a4dc" stop-opacity="1"/>
            </linearGradient>
            <path id="outer-shape" fill="url(#linearGradient2)" stroke="none" d="M 130.710022 11.649994 C 99.915009 11.649994 0.785004 191.365005 15.899994 221.714996 C 31.014999 252.065002 230.570007 251.714996 245.52002 221.714996 C 260.470001 191.714996 161.5 11.649994 130.710022 11.649994 Z M 205.950012 195.380005 C 196.154999 215.044998 65.410004 215.264999 55.5 195.380005 C 45.589996 175.494995 110.550003 57.740005 130.725006 57.740005 C 150.899994 57.740005 215.744995 175.710007 205.950012 195.380005 Z"/>
        </g>
    </g>
</svg>
